<?xml version="1.0" encoding="utf-8"?>
<!-- Generator: Adobe Illustrator 20.1.0, SVG Export Plug-In . SVG Version: 6.00 Build 0)  -->
<svg version="1.1" id="Layer_1" xmlns="http://www.w3.org/2000/svg" xmlns:xlink="http://www.w3.org/1999/xlink" x="0px" y="0px"
	 viewBox="0 0 423 294" style="enable-background:new 0 0 423 294;" xml:space="preserve">
<style type="text/css">
	.st0{fill:#3FBB97;}
	.st1{fill:#329375;}
	.st2{fill:#2E2D40;}
	.st3{fill:#FFFFFF;}
	.st4{fill:#50BFA1;}
	.st5{fill:none;stroke:#2E2D40;stroke-width:2.749;stroke-linecap:round;stroke-miterlimit:10;}
</style>
<polygon class="st0" points="290,201.2 342.4,201.2 329.3,188.1 342.4,175.1 290,175.1 "/>
<polygon class="st1" points="290,201.2 312.9,195.1 312.9,169.1 290,175.1 "/>
<polygon class="st0" points="125.9,201.2 73.5,201.2 86.6,188.1 73.5,175.1 125.9,175.1 "/>
<polygon class="st1" points="125.9,201.2 103.1,195.1 103.1,169.1 125.9,175.1 "/>
<path class="st2" d="M208.8,243.5c-6.5-4.1-16.7-5.2-26.2-6.3c-5.9-0.6-11.9-1.3-16.9-2.5c-13.9-3.4-25.8-12.3-32.5-24.5
	c-7.5-13.5-8.3-29.8-2.5-47.2c10.3-30.8,9.7-58.1-2.1-93.2L144,54.4h129.8L289,69.7c-11.9,35.1-12.4,62.4-2.1,93.2
	c5.8,17.4,5,33.7-2.5,47.2c-6.8,12.2-18.6,21.2-32.5,24.5c-5,1.2-11,1.9-16.9,2.5C225.5,238.3,215.2,239.4,208.8,243.5"/>
<path class="st3" d="M271,60.9l10.6,10.6c-11.1,34.8-11.3,62.4-0.9,93.5c5.2,15.6,4.5,30.2-2,42c-5.9,10.6-16.2,18.4-28.4,21.4
	c-4.6,1.1-10.4,1.7-16.1,2.4c-7.7,0.8-15,1.6-21.3,3.6c-1.2,0.4-2.6,0.9-4.3,1.7c-1.6-0.8-3.1-1.3-4.3-1.7c-6.3-2-13.6-2.8-21.3-3.6
	c-5.7-0.6-11.5-1.2-16.1-2.4c-12.2-3-22.5-10.7-28.4-21.4c-6.5-11.9-7.3-26.4-2-42c10.4-31.2,10.3-58.8-0.9-93.5l10.6-10.6h62.2H271
	 M276.4,47.9h-67.6h-67.6L121,68c14.3,40.3,12.3,66.2,3.4,92.9c-14,41.8,9.6,72.8,39.6,80.1c17.6,4.3,44.7,1.8,44.7,14.1
	c0-12.3,27-9.9,44.7-14.1c30.1-7.3,53.6-38.3,39.6-80.1c-8.9-26.7-10.9-52.6,3.4-92.9L276.4,47.9z"/>
<polygon class="st3" points="284.6,110.5 161.7,233.4 153,234.4 139.5,225 131.4,215.1 125.9,201.2 127.6,182.1 258.1,51.6 
	275.2,51.6 292,69 "/>
<path class="st2" d="M273.7,54.4L289,69.7c-6.2,18.3-9.3,34.6-9.4,49.7c-0.2,14.2,2.2,28,7.3,43.5c5.8,17.4,5,33.7-2.5,47.2
	c-6.8,12.2-18.6,21.2-32.5,24.5c-5,1.2-11,1.9-16.9,2.5c-7.4,0.8-14.3,1.6-20,3.4c-2.5,0.8-4.6,1.8-6.3,2.9
	c-1.7-1.1-3.7-2.1-6.3-2.9c-5.6-1.8-12.6-2.6-20-3.4c-5.9-0.6-11.9-1.3-16.9-2.5c-13.9-3.4-25.8-12.3-32.5-24.5
	c-7.5-13.5-8.3-29.8-2.5-47.2c5.2-15.5,7.5-29.3,7.3-43.5c-0.2-15.1-3.3-31.4-9.4-49.7l15.4-15.4h64.9h65 M276.4,47.9h-67.6h-67.6
	L121,68c14.3,40.3,12.3,66.2,3.4,92.9c-14,41.8,9.6,72.8,39.6,80.1c17.6,4.3,44.7,1.8,44.7,14.1c0-12.3,27-9.9,44.7-14.1
	c30.1-7.3,53.6-38.3,39.6-80.1c-8.9-26.7-10.9-52.6,3.4-92.9L276.4,47.9z"/>
<rect x="103.1" y="169.1" class="st4" width="209.8" height="26.1"/>
<path class="st3" d="M154.7,186.8l2.5-0.4c0.1,1.7,0.7,2.5,1.7,2.5c0.5,0,0.9-0.2,1.2-0.5s0.4-0.7,0.4-1.2c0-0.9-0.7-2-2.1-3.4
	l-0.2-0.2c-1.1-1.1-1.8-1.9-2.2-2.5c-0.7-1-1-2-1-3.1c0-1.2,0.4-2.2,1.2-3s1.7-1.2,2.9-1.2s2.1,0.4,2.8,1.2c0.6,0.8,1,1.7,1.1,3
	l-2.6,0.4c-0.1-1.4-0.6-2.1-1.4-2.1c-0.9,0-1.4,0.5-1.4,1.6c0,1,0.8,2.3,2.5,3.9l0.2,0.2c1,1,1.7,1.8,2.1,2.4c0.6,0.9,0.9,1.9,0.9,3
	c0,1.2-0.4,2.2-1.1,3c-0.8,0.8-1.7,1.2-2.9,1.2c-1.4,0-2.4-0.4-3.2-1.3C155.1,189.4,154.7,188.2,154.7,186.8"/>
<rect x="167.3" y="174.2" class="st3" width="2.7" height="16.9"/>
<path class="st3" d="M175,191.1v-16.9h2.3l3.3,10.1c0.1,0.4,0.3,1,0.5,1.8c-0.2-1.1-0.3-1.9-0.3-2.3v-9.6h2.4v16.9h-2.4l-3.2-9.4
	l0,0v-0.1c-0.2-0.7-0.4-1.2-0.5-1.7c0.2,1.2,0.3,2,0.3,2.3v8.9H175z"/>
<path class="st3" d="M188,186.8v-8.7c0-1.3,0.4-2.4,1.1-3.1c0.7-0.8,1.7-1.2,3-1.2s2.3,0.4,3,1.2s1,1.8,1,3.1v1.6h-2.7V178
	c0-1.2-0.4-1.8-1.3-1.8c-0.9,0-1.3,0.6-1.3,1.8v9.5c0,1.2,0.4,1.8,1.3,1.8c0.9,0,1.3-0.6,1.3-1.8v-2.3h2.7v1.8
	c0,1.4-0.3,2.5-0.9,3.3c-0.7,0.9-1.7,1.3-3.1,1.3C189.4,191.5,188,189.9,188,186.8"/>
<polygon class="st3" points="200.7,191.1 200.7,174.2 207.5,174.2 207.5,176.7 203.3,176.7 203.3,181.1 206.4,181.1 206.4,183.5 
	203.3,183.5 203.3,188.6 207.5,188.6 207.5,191.1 "/>
<path class="st3" d="M218.6,191.1v-2.4c3.6-4.9,5.3-8.4,5.3-10.5c0-1.4-0.4-2-1.2-2c-0.5,0-0.9,0.2-1.1,0.6
	c-0.2,0.3-0.3,0.9-0.3,1.7v0.6h-2.5v-0.3c0-1.4,0.3-2.6,0.9-3.4c0.7-1,1.7-1.5,3.1-1.5c1.1,0,2,0.4,2.7,1.2c0.6,0.7,0.9,1.7,0.9,2.9
	c0,1.6-0.6,3.5-1.8,5.7c-0.6,1.1-1.6,2.8-3.2,5.1h4.7v2.4h-7.5V191.1z"/>
<path class="st3" d="M230.8,178.1c0-1.3,0.3-2.3,1-3.1s1.7-1.2,3-1.2c1.2,0,2.2,0.4,2.9,1.3c0.6,0.8,1,1.8,1,3.1v8.7
	c0,1.4-0.3,2.5-0.9,3.3c-0.7,0.9-1.7,1.4-3,1.4c-2.6,0-3.9-1.6-3.9-4.7v-8.8H230.8z M233.3,187.5c0,1.1,0.5,1.6,1.4,1.6
	s1.3-0.5,1.3-1.6v-9.9c0-0.4-0.1-0.7-0.4-1c-0.3-0.2-0.6-0.4-1-0.4s-0.7,0.1-1,0.4c-0.3,0.2-0.4,0.6-0.4,1L233.3,187.5L233.3,187.5z
	"/>
<path class="st3" d="M241.8,178v-1.7c1.3-0.5,2.3-1.2,2.9-2.1h1.7v16.9h-2.6V178H241.8z"/>
<path class="st3" d="M251.2,186.3h2.5v0.7c0,1.4,0.4,2.1,1.2,2.1c0.9,0,1.4-0.8,1.4-2.4c0-1-0.1-1.8-0.3-2.2
	c-0.3-0.6-0.9-0.9-1.8-0.9h-0.3v-2.4c0,0,0.1,0,0.2,0c0.1,0,0.2,0,0.2,0c0.7,0,1.2-0.3,1.5-0.8c0.2-0.4,0.3-1,0.3-1.8
	c0-1.5-0.4-2.2-1.1-2.2c-0.8,0-1.2,0.6-1.2,1.9c0,0.3,0,0.5,0,0.6h-2.5v-0.1c0-1.4,0.3-2.4,0.8-3.3c0.6-1,1.6-1.5,2.9-1.5
	c2.3,0,3.4,1.6,3.4,4.8c0,1.9-0.5,3.1-1.5,3.6c0.7,0.4,1.2,0.9,1.5,1.7c0.2,0.5,0.3,1.3,0.3,2.3c0,3.4-1.2,5.1-3.6,5.1
	c-1.3,0-2.3-0.5-3-1.5c-0.6-0.8-0.9-1.9-0.9-3.3L251.2,186.3L251.2,186.3z"/>
<path d="M189.6,102.1c-1,0-2-0.2-3-0.5c-1.3-0.5-2.4-1.1-3.1-2c-0.7-0.9-1.2-1.8-1.5-2.9c-0.2-1-0.2-2.1,0-3.2s0.6-2.1,1.1-3.1
	s1.2-1.9,2-2.8c0.8-0.8,1.7-1.6,2.7-2.1c1-0.6,2.1-0.9,3.2-1c0.3,0,0.6,0,0.8,0c0.1,0,0.1,0,0.2,0c-0.5-0.3-1.1-0.6-1.5-1
	c-0.8-0.7-1.4-1.6-1.7-2.6s-0.3-2.1-0.1-3.2c0.3-1.1,1-2.3,2.1-3.4c1.2-1.2,2.6-2,4-2.3c0.9-0.2,1.8-0.3,2.7-0.3
	c0.5,0,1.1,0,1.7,0.1c1.5,0.2,3,0.5,4.5,0.9c1.3,0.4,2.6,0.7,3.8,1c1.3-0.9,2.4-1.5,3.5-1.8c0.7-0.2,1.4-0.3,2-0.3
	c0.4,0,0.8,0,1.1,0.1c1,0.2,1.6,0.7,2,1.4c0.4,0.8,0.4,1.6-0.1,2.4c-0.4,0.6-1.2,1.1-2.3,1.5c-0.6,0.2-1.4,0.3-2.2,0.3
	c-0.4,0-0.9,0-1.4-0.1c-0.4,0.4-0.7,1-1.2,1.8c-0.6,1.1-1.2,2.3-1.9,3.7l-2.3,4.5c-0.8,1.6-1.7,3.2-2.6,4.8c-1,1.6-2,3.1-3,4.4
	c-1.1,1.4-2.3,2.6-3.5,3.6c-1.3,1-2.7,1.7-4.2,2C190.8,102.1,190.2,102.1,189.6,102.1 M187.4,98.4c0,0.5,0.2,0.6,0.3,0.6
	c0.2,0.1,0.3,0.1,0.5,0.1c0.3,0,0.5-0.1,0.8-0.2c0.5-0.3,1-0.7,1.6-1.3c-0.2,0.1-0.3,0.2-0.5,0.2c-0.6,0.3-1.3,0.4-1.9,0.4
	c-0.3,0-0.5,0-0.8-0.1C187.4,98.2,187.4,98.3,187.4,98.4 M195.1,85.3c1,0.6,1.4,1.4,1.5,2c0.1,0.2,0.1,0.4,0.1,0.7
	c0.4-0.8,0.9-1.6,1.4-2.4c0.3-0.5,0.5-0.9,0.8-1.3c-0.8,0.5-1.6,0.8-2.4,0.9C196.1,85.2,195.6,85.3,195.1,85.3
	C195.2,85.3,195.1,85.3,195.1,85.3 M198.1,75.4c-0.7,0.4-1.3,0.8-1.9,1.3c-0.6,0.6-1.1,1.2-1.6,1.8c-0.4,0.7-0.8,1.3-1,1.9
	c-0.2,0.5-0.3,1-0.3,1.4c0,0,0,0,0,0.1c0.1,0,0.1,0,0.2-0.1c0.4-0.2,0.8-0.6,1.2-1c0.4-0.5,0.9-1,1.3-1.7c0.4-0.7,0.9-1.3,1.2-1.9
	c0.4-0.6,0.6-1.2,0.9-1.7C198.1,75.4,198.1,75.4,198.1,75.4C198.2,75.4,198.1,75.4,198.1,75.4 M201.9,75.2c0.3,0.5,0.5,1,0.7,1.6
	c0.1,0.5,0.2,1,0.1,1.6c0.3-0.4,0.5-0.7,0.8-1c0.4-0.6,0.9-1.1,1.4-1.5h-0.1c-0.7-0.2-1.3-0.3-1.9-0.5
	C202.5,75.3,202.2,75.2,201.9,75.2L201.9,75.2"/>
<path class="st3" d="M213,72.5c0.3,0,0.6,0,0.9,0.1c0.7,0.2,1.2,0.5,1.4,0.9c0.3,0.5,0.2,0.9-0.1,1.3s-0.9,0.8-1.8,1.1
	c-0.5,0.2-1.2,0.2-1.9,0.2c-0.5,0-1.1,0-1.8-0.1c-0.5,0.5-1.1,1.3-1.7,2.3c-0.6,1.1-1.3,2.3-2,3.7c-0.7,1.4-1.5,2.9-2.3,4.5
	s-1.7,3.2-2.6,4.7c-0.9,1.5-1.9,3-3,4.4c-1,1.4-2.2,2.5-3.3,3.4c-1.2,0.9-2.4,1.5-3.8,1.9c-0.5,0.1-1,0.2-1.5,0.2
	c-0.9,0-1.7-0.2-2.6-0.5c-1.2-0.4-2.1-1-2.7-1.7c-0.6-0.7-1-1.5-1.2-2.4s-0.2-1.8,0-2.8s0.5-1.9,1-2.8s1.1-1.8,1.8-2.5
	c0.7-0.8,1.6-1.4,2.5-1.9s1.9-0.8,2.9-0.9c0.2,0,0.5,0,0.7,0c0.8,0,1.6,0.1,2.3,0.4c0.8,0.3,1.3,0.8,1.5,1.6
	c0.2,0.7,0.1,1.6-0.1,2.5c-0.3,0.9-0.7,1.8-1.3,2.8c-0.6,0.9-1.3,1.8-2.1,2.5s-1.6,1.3-2.5,1.6c-0.5,0.2-1,0.3-1.5,0.3
	c-0.3,0-0.6,0-0.9-0.1c0.1,0,0.3-0.3,0.7-0.8s0.9-1.2,1.4-1.9c0.5-0.8,1.1-1.6,1.7-2.5s1.1-1.7,1.6-2.5s0.8-1.4,1-1.9
	s0.3-0.8,0.1-0.9c0,0-0.1,0-0.2,0c-0.3,0-0.8,0.2-1.3,0.7c-0.6,0.6-1.3,1.3-2,2.2c-0.7,0.9-1.3,1.9-2,3c-0.6,1.1-1.1,2.2-1.5,3.2
	s-0.5,1.9-0.5,2.7c0,0.8,0.3,1.3,0.9,1.5c0.3,0.1,0.6,0.2,0.9,0.2c0.4,0,0.8-0.1,1.3-0.4c0.7-0.4,1.5-1.1,2.3-1.9
	c0.8-0.9,1.5-2,2.3-3.2c0.8-1.3,1.6-2.6,2.4-4.1c0.8-1.4,1.7-2.9,2.5-4.4c0.9-1.5,1.7-2.9,2.6-4.3c0.9-1.4,1.8-2.6,2.7-3.7
	s1.8-2,2.8-2.7c-0.7-0.1-1.4-0.3-2-0.5c-0.7-0.2-1.3-0.3-1.9-0.5c-0.6-0.1-1.2-0.3-1.7-0.4s-1-0.1-1.3-0.1c-0.8,0-1.7,0.2-2.4,0.6
	c-0.8,0.4-1.5,0.9-2.1,1.5s-1.2,1.3-1.7,2s-0.9,1.4-1.1,2.1c-0.3,0.7-0.4,1.2-0.4,1.7s0.2,0.8,0.5,1c0.1,0.1,0.3,0.1,0.5,0.1
	c0.3,0,0.5-0.1,0.8-0.3c0.5-0.3,0.9-0.7,1.4-1.2s1-1.1,1.4-1.8c0.5-0.7,0.9-1.4,1.3-2c0.4-0.7,0.7-1.2,0.9-1.8
	c0.2-0.5,0.4-0.9,0.4-1.1c0.1,0,0.2-0.1,0.2-0.1c0.2,0,0.3,0.1,0.5,0.2c0.3,0.2,0.6,0.4,0.8,0.8s0.4,0.8,0.6,1.4
	c0.1,0.5,0.1,1.1,0,1.7s-0.4,1.3-0.8,2c-0.4,0.7-1,1.4-1.8,2c-0.9,0.7-1.8,1.2-2.8,1.3c-0.4,0.1-0.8,0.1-1.1,0.1
	c-0.6,0-1.1-0.1-1.7-0.2c-0.9-0.3-1.7-0.7-2.4-1.3c-0.7-0.6-1.2-1.3-1.4-2.2c-0.3-0.8-0.3-1.7,0-2.7c0.2-1,0.9-2,1.8-3
	c1.1-1.1,2.2-1.8,3.5-2c0.8-0.2,1.7-0.2,2.5-0.2c0.5,0,1,0,1.6,0.1c1.4,0.2,2.9,0.4,4.3,0.9c1.5,0.4,2.9,0.8,4.3,1.1
	c1.3-1,2.5-1.6,3.5-1.9C211.9,72.6,212.5,72.5,213,72.5 M213,70.5c-0.7,0-1.4,0.1-2.2,0.3c-1.1,0.3-2.2,0.8-3.4,1.7
	c-1.1-0.2-2.2-0.5-3.3-0.8c-1.6-0.5-3.1-0.8-4.7-0.9c-0.6-0.1-1.2-0.1-1.8-0.1c-1,0-2,0.1-2.9,0.3c-1.7,0.3-3.2,1.2-4.6,2.6
	c-1.2,1.3-2,2.6-2.3,3.9s-0.3,2.6,0.1,3.8c0.3,1,0.9,1.9,1.6,2.7c-0.7,0.2-1.5,0.5-2.2,0.9c-1.1,0.6-2.1,1.4-3,2.3s-1.6,1.9-2.2,3
	c-0.6,1.1-1,2.2-1.2,3.4c-0.2,1.2-0.2,2.4,0,3.6c0.3,1.2,0.8,2.3,1.7,3.3s2.1,1.8,3.6,2.3c1.1,0.4,2.2,0.6,3.3,0.6
	c0.7,0,1.4-0.1,2-0.2c1.6-0.4,3.1-1.1,4.5-2.2c1.3-1,2.6-2.3,3.7-3.8c1.1-1.4,2.1-2.9,3.1-4.5s1.9-3.2,2.7-4.9l2.3-4.5
	c0.7-1.4,1.3-2.6,1.9-3.6c0.3-0.5,0.6-0.9,0.8-1.2c0.3,0,0.6,0,0.9,0c1,0,1.8-0.1,2.5-0.3c1.4-0.4,2.3-1,2.8-1.9
	c0.7-1.1,0.8-2.3,0.1-3.4c-0.4-0.7-1.1-1.5-2.7-1.9C213.9,70.5,213.5,70.5,213,70.5"/>
<path d="M209.9,101.9c-1.8,0-2.5-0.8-2.8-1.5c-0.3-0.8-0.4-1.8-0.1-3c-0.6,1.2-1.3,2.5-2,4l-0.3,0.6h-0.6c-1.2,0-2.1-0.2-2.8-0.6
	c-0.6-0.3-1.3-1.1-1.3-2.6c0-0.9,0.4-2.1,1-3.7c0.6-1.4,1.6-3.3,2.8-5.6c1.9-3.4,3.5-6.3,4.8-8.5c1.3-2.3,2.4-4.2,3.2-5.6
	c0.9-1.5,1.6-2.6,2.3-3.3c0.7-0.9,1.4-1.4,2.1-1.8c0.7-0.4,1.4-0.5,2.2-0.6c0.6,0,1.4,0,2.4,0h1.8l-0.9,1.5
	c-0.6,0.9-1.1,1.8-1.5,2.5s-0.8,1.3-1.1,1.9s-0.5,1-0.6,1.2c-0.5,1-1.1,2-1.9,3c-0.2,0.3-0.5,0.6-0.7,1c0.6-0.2,1.2-0.3,1.8-0.3
	c1.7,0,2.3,0.9,2.6,1.5c0.3,0.8,0.3,1.7,0,2.8c-0.3,1-0.7,2.1-1.3,3.3c0,0.1-0.1,0.1-0.1,0.2c0.1-0.2,0.7-1.2,0.7-1.2h3l-0.8,1.5
	c-1.3,2.4-2.6,4.4-3.7,6.1c-1.1,1.7-2.1,3-3.1,4.1s-1.8,1.9-2.7,2.4C211.5,101.6,210.7,101.9,209.9,101.9"/>
<path class="st3" d="M220.9,70.6c-0.6,0.9-1.1,1.8-1.5,2.6c-0.4,0.7-0.8,1.3-1.1,1.9s-0.6,1-0.6,1.2c-0.5,0.9-1.1,1.8-1.8,2.8
	s-1.5,2-2.3,3.2c-0.9,1.2-1.7,2.5-2.7,4c-0.9,1.5-1.9,3.2-2.8,5.2c0.7-1.3,1.4-2.6,2.2-3.8c0.8-1.2,1.6-2.3,2.4-3.3
	c0.8-0.9,1.7-1.7,2.5-2.3c0.9-0.6,1.7-0.9,2.6-0.9c0.9,0,1.4,0.3,1.6,0.8c0.2,0.6,0.2,1.3,0,2.2c-0.2,0.9-0.6,2-1.2,3.1
	c-0.6,1.2-1.2,2.3-1.9,3.5c-0.4,0.7-0.7,1.3-1,1.9s-0.7,1.1-1,1.6s-0.6,1-0.9,1.4c-0.3,0.5-0.6,0.9-0.8,1.4
	c-0.1,0.2-0.3,0.5-0.4,0.7c-0.1,0.3-0.2,0.5-0.2,0.6c0,0.2,0,0.3,0.1,0.3l0,0c0.1,0,0.2-0.1,0.4-0.2c0.8-0.7,1.9-1.9,3.2-3.6
	s2.8-4.1,4.6-7.2h0.8c-1.3,2.4-2.5,4.4-3.6,6s-2.1,3-3,4s-1.7,1.7-2.4,2.2c-0.7,0.4-1.4,0.7-1.9,0.7c-1,0-1.6-0.3-1.9-0.9
	c-0.3-0.6-0.3-1.4,0-2.4s0.7-2.1,1.3-3.4s1.3-2.6,2.1-3.9c0.5-0.9,1.1-1.8,1.6-2.6c0.5-0.8,1-1.6,1.4-2.2s0.7-1.1,0.9-1.5
	s0.3-0.6,0.2-0.6c-0.3,0-0.7,0.3-1.3,0.8c-0.6,0.6-1.3,1.5-2.3,2.8c-0.9,1.3-2,3.1-3.3,5.4s-2.8,5.1-4.5,8.5l0,0
	c-1,0-1.7-0.1-2.3-0.4c-0.5-0.3-0.8-0.9-0.8-1.7c0-0.8,0.3-1.9,0.9-3.3c0.6-1.4,1.5-3.2,2.8-5.5c1.9-3.4,3.5-6.3,4.8-8.6
	c1.3-2.3,2.3-4.2,3.2-5.6s1.6-2.5,2.2-3.2c0.6-0.7,1.2-1.2,1.7-1.5c0.6-0.3,1.2-0.4,1.8-0.5C219.1,70.6,219.9,70.6,220.9,70.6
	 M224.5,68.6h-3.6c-1,0-1.8,0-2.4,0c-0.9,0-1.8,0.2-2.7,0.7c-0.8,0.4-1.6,1.1-2.4,2.1c-0.6,0.8-1.4,1.9-2.3,3.5
	c-0.9,1.4-2,3.3-3.2,5.6c-1.3,2.3-2.9,5.1-4.8,8.5c-1.3,2.3-2.2,4.2-2.9,5.7c-0.7,1.7-1.1,3-1.1,4c-0.1,2.1,1.1,3.1,1.8,3.5
	c0.8,0.5,1.9,0.7,3.3,0.7h1.2l0.6-1.1c0.1-0.3,0.3-0.5,0.4-0.8c0.4,0.8,1.4,1.9,3.6,1.9c1,0,2-0.3,3-1c0.9-0.6,1.8-1.4,2.9-2.5
	c1-1.1,2-2.5,3.2-4.2c1.1-1.7,2.4-3.7,3.7-6.2l1.7-3h-3.4c0.1-0.4,0.2-0.8,0.3-1.1c0.4-1.3,0.3-2.5,0-3.5c-0.2-0.6-1-2-3.1-2.1
	c0.5-0.7,0.9-1.4,1.3-2.1l0,0l0,0c0.1-0.2,0.3-0.6,0.6-1.1c0.3-0.6,0.7-1.2,1.1-1.9l0,0l0,0c0.4-0.8,0.9-1.6,1.5-2.5L224.5,68.6z"/>
<path d="M220.9,101.9c-1.5,0-2.7-0.4-3.5-1.1s-1.3-1.7-1.5-2.8c-0.2-1-0.1-2.2,0.2-3.5c0.3-1.2,0.8-2.5,1.4-3.8
	c0.6-1.3,1.4-2.5,2.3-3.7c0.9-1.2,1.9-2.3,3-3.3s2.2-1.8,3.4-2.4c1.3-0.6,2.5-1,3.8-1s2.3,0.4,3,1.1c0.6,0.7,1,1.7,1,2.8
	c0,0.9-0.2,1.8-0.6,2.8h2l-0.7,1.4c-1,2-2,3.8-3,5.4s-2.1,3-3.3,4.2s-2.4,2.1-3.6,2.8C223.6,101.5,222.3,101.9,220.9,101.9
	 M222.9,95c-0.3,0.6-0.5,1.2-0.6,1.7c-0.2,0.6-0.3,1.2-0.4,1.6c0,0.3,0,0.5,0,0.6c0.2,0,0.6-0.1,1.3-0.4c0.6-0.2,1.4-0.8,2.3-1.5
	c0.9-0.8,2-2,3.1-3.5c0.4-0.6,0.9-1.2,1.4-2c-0.8,0.7-1.7,1.3-2.7,1.8C226,94.1,224.5,94.6,222.9,95"/>
<path class="st3" d="M230,81.4c1,0,1.8,0.3,2.3,0.8s0.7,1.2,0.7,2.1s-0.2,1.8-0.7,2.8s-1.2,2-2.1,2.9c-0.9,0.9-2.1,1.8-3.4,2.5
	c-1.3,0.7-2.9,1.3-4.6,1.6c-0.4,0.8-0.7,1.6-0.9,2.3c-0.2,0.7-0.4,1.3-0.4,1.9c0,0.5,0,0.9,0.2,1.2c0.2,0.3,0.4,0.4,0.8,0.4
	c0.4,0,0.9-0.1,1.7-0.4c0.7-0.3,1.6-0.9,2.6-1.7c1-0.9,2.1-2.1,3.2-3.6c1.2-1.5,2.4-3.6,3.7-6.1h0.8c-0.9,2-1.9,3.7-2.9,5.3
	s-2.1,2.9-3.1,4c-1.1,1.1-2.2,2-3.3,2.6s-2.3,0.9-3.5,0.9s-2.2-0.3-2.8-0.8c-0.6-0.6-1-1.3-1.2-2.2c-0.1-0.9-0.1-1.9,0.2-3.1
	s0.7-2.4,1.3-3.6s1.3-2.4,2.2-3.6s1.8-2.2,2.8-3.1s2.1-1.7,3.2-2.2C227.8,81.6,228.9,81.4,230,81.4 M222.4,93.5
	c0.6-0.3,1.2-0.8,1.9-1.5c0.6-0.7,1.3-1.5,1.9-2.3c0.6-0.8,1.2-1.7,1.7-2.6s1-1.7,1.3-2.4s0.6-1.3,0.8-1.8s0.2-0.7,0.1-0.7
	c-0.2,0-0.4,0.2-0.8,0.5c-0.3,0.3-0.7,0.8-1.1,1.3c-0.4,0.6-0.9,1.2-1.4,2c-0.5,0.7-1,1.5-1.5,2.4c-0.5,0.8-1,1.7-1.5,2.6
	C223.3,91.8,222.8,92.7,222.4,93.5 M230,79.4c-1.4,0-2.8,0.4-4.2,1.1c-1.3,0.6-2.5,1.5-3.6,2.5s-2.2,2.1-3.1,3.4
	c-0.9,1.3-1.8,2.6-2.4,3.9c-0.7,1.3-1.2,2.7-1.5,4c-0.4,1.4-0.4,2.7-0.3,3.9c0.2,1.4,0.8,2.5,1.8,3.4s2.4,1.3,4.2,1.3
	c1.5,0,3.1-0.4,4.5-1.1c1.3-0.7,2.6-1.7,3.8-3c1.2-1.2,2.3-2.7,3.4-4.3c1-1.6,2.1-3.5,3-5.5l1.4-2.9h-2.2c0.2-0.6,0.2-1.2,0.2-1.8
	c0-1.4-0.4-2.5-1.2-3.4C232.9,79.9,231.7,79.4,230,79.4 M223.6,95.8c0.8-0.2,1.6-0.4,2.4-0.7c-0.4,0.5-0.8,0.8-1.2,1.2
	c-0.8,0.7-1.4,1.1-1.8,1.3c0-0.2,0.1-0.4,0.2-0.5C223.3,96.6,223.4,96.3,223.6,95.8"/>
<path class="st2" d="M89.3,227.7c5.6-2.4,8.4-3.6,13.8-6.3c0.9,1.2,1.4,1.8,2.3,2.9c-3.9,4.7-5.7,7.1-9.4,11.9
	c-0.8-1-1.3-1.5-2.1-2.5c0.8-1,1.3-1.5,2.1-2.5c-0.8-1-1.2-1.5-1.9-2.5c-1.2,0.6-1.8,0.9-3,1.4C90.4,229.3,90,228.7,89.3,227.7
	 M96,227.9c0.6,0.7,0.9,1.1,1.4,1.8c1.7-1.9,2.5-2.8,4.2-4.6c0-0.1-0.1-0.1-0.1-0.1C99.4,226.1,98.3,226.7,96,227.9"/>
<path class="st2" d="M104.2,239.8c0.9,0.8,1.3,1.1,2.2,1.9c-1,1.1-1,2.1-0.1,3c0.4,0.4,0.8,0.6,1.2,0.7s0.8-0.1,1.1-0.4
	c0.5-0.6,0.6-1.8,0.4-3.8c0-0.1,0-0.2,0-0.3c-0.2-1.5-0.2-2.6-0.2-3.3c0.1-1.2,0.5-2,1.1-2.7c0.7-0.7,1.7-1,2.8-0.9
	c1.1,0.1,2.1,0.6,2.9,1.4c0.9,0.9,1.3,1.8,1.4,2.9c0,1-0.3,1.9-0.9,2.7c-0.9-0.7-1.3-1-2.2-1.7c0.8-1,0.9-1.8,0.2-2.4
	c-0.7-0.7-1.4-0.7-2-0.1c-0.6,0.6-0.8,2-0.5,4.3c0,0.1,0,0.1,0,0.2c0.2,1.4,0.3,2.4,0.2,3.1c-0.1,1-0.4,1.9-1.1,2.6
	c-0.7,0.8-1.6,1.1-2.8,1c-1.1-0.1-2.2-0.6-3.2-1.6c-1.1-1.1-1.7-2.3-1.8-3.5C102.9,241.7,103.3,240.7,104.2,239.8"/>
<path class="st2" d="M110.5,251.2c3.9-4.4,5.9-6.7,9.8-11.1c1.2,1.1,1.8,1.6,3,2.6s1.9,2,1.9,3.1c0,0.9-0.4,1.9-1.2,3
	c-0.7,0.9-1.6,1.6-2.5,1.9c-1.1,0.4-2.3,0.1-3.3-0.8c-0.6-0.5-0.9-0.8-1.5-1.3c-1.6,1.8-2.3,2.8-3.9,4.6
	C111.9,252.4,111.4,252,110.5,251.2 M118.1,247c0.3,0.3,0.5,0.4,0.9,0.7c0.6,0.5,1.2,0.6,1.7,0.4c0.3-0.1,0.7-0.5,1.2-1.1
	s0.7-1,0.8-1.4c0.1-0.5-0.2-1-0.8-1.5c-0.3-0.3-0.5-0.4-0.8-0.6C119.9,244.9,119.3,245.6,118.1,247"/>
<path class="st2" d="M118.2,257.6c4.6-3.9,6.9-5.9,11.4-10c1.1,0.8,1.7,1.2,2.9,2c-2.5,5.5-3.6,8.3-5.9,14c-1-0.7-1.5-1-2.5-1.7
	c0.5-1.2,0.8-1.8,1.4-3c-1-0.7-1.4-1-2.4-1.7c-1,0.9-1.4,1.3-2.4,2.2C119.6,258.7,119.1,258.3,118.2,257.6 M124.5,255.7
	c0.7,0.5,1.1,0.8,1.8,1.3c1.1-2.3,1.7-3.4,2.8-5.6c-0.1,0-0.1-0.1-0.1-0.1C127.2,253.1,126.3,254,124.5,255.7"/>
<path class="st2" d="M130.3,261.5c1.6-2.6,2.5-3.8,4.1-6.4c0.6-1,1.4-1.5,2.4-1.7s2.1,0.1,3.2,0.8c1.1,0.7,1.8,1.5,2,2.5
	c0.2,0.9,0.1,1.9-0.5,2.9c-0.3,0.5-0.4,0.7-0.7,1.2c-1-0.6-1.5-0.8-2.5-1.4c0.3-0.6,0.5-0.8,0.8-1.4c0.5-0.9,0.4-1.6-0.4-2
	c-0.8-0.5-1.5-0.3-2,0.6c-1.7,2.8-2.6,4.2-4.3,7.1c-0.5,0.9-0.4,1.6,0.5,2.1s1.6,0.3,2.1-0.6c0.4-0.7,0.6-1,1-1.7
	c1,0.6,1.5,0.9,2.5,1.5c-0.3,0.5-0.5,0.8-0.8,1.4c-0.6,1.1-1.4,1.8-2.3,2c-1.1,0.3-2.3,0-3.6-0.8
	C129.3,265.9,128.8,263.8,130.3,261.5"/>
<path class="st2" d="M138.9,271c2.8-5.2,4.2-7.9,7-13.1c2.4,1.3,3.7,1.9,6.2,3.1c-0.4,0.8-0.5,1.2-0.9,1.9c-1.6-0.7-2.3-1.1-3.9-1.9
	c-0.7,1.4-1.1,2.1-1.8,3.5c1.1,0.6,1.7,0.9,2.9,1.4c-0.4,0.8-0.6,1.2-0.9,1.9c-1.2-0.6-1.8-0.8-2.9-1.4c-0.8,1.6-1.2,2.4-2,4
	c1.7,0.8,2.5,1.2,4.2,2c-0.4,0.8-0.6,1.2-0.9,2C143,273.1,141.6,272.4,138.9,271"/>
<path class="st2" d="M154.1,277.9c2.2-5.5,3.3-8.3,5.4-13.8c2.5,1,3.8,1.5,6.4,2.3c-0.3,0.8-0.4,1.2-0.7,2c-1.6-0.5-2.4-0.8-4-1.4
	c-0.5,1.5-0.8,2.2-1.3,3.6c1.2,0.4,1.8,0.6,3,1.1c-0.3,0.8-0.4,1.2-0.7,2c-1.2-0.4-1.8-0.6-3-1.1c-0.9,2.5-1.4,3.7-2.3,6.2
	C155.7,278.6,155.1,278.4,154.1,277.9"/>
<path class="st2" d="M166.3,270.2c0.4-1.1,1-1.9,1.8-2.3c0.9-0.4,2-0.5,3.2-0.1c1.2,0.3,2.1,0.9,2.6,1.8c0.5,0.8,0.6,1.8,0.3,2.9
	c-0.8,2.9-1.1,4.4-1.9,7.4c-0.3,1.2-0.9,2-1.7,2.6c-0.9,0.6-2.1,0.6-3.6,0.2c-2.9-0.8-3.8-2.6-3-5.2
	C164.9,274.5,165.3,273.1,166.3,270.2 M169.3,279.6c0.9-3.2,1.3-4.8,2.2-8c0.3-1,0-1.6-0.9-1.8c-0.9-0.2-1.5,0.1-1.7,1.1
	c-0.9,3.2-1.4,4.8-2.4,7.9c-0.3,1,0,1.6,1,1.9C168.5,280.9,169.1,280.6,169.3,279.6"/>
<path class="st2" d="M178.6,278.7c-0.5,2.4-0.8,3.7-1.3,6.1c-1.1-0.2-1.7-0.4-2.8-0.6c1.3-5.8,2-8.7,3.3-14.5
	c1.5,0.3,2.2,0.5,3.7,0.8s2.5,0.9,3,1.8c0.4,0.8,0.5,1.8,0.3,3.2c-0.3,1.7-1.1,2.8-2.3,3.3c0.3,2.9,0.5,4.3,0.9,7.1
	c-1.2-0.2-1.8-0.3-2.9-0.5c-0.2-2.6-0.3-3.9-0.5-6.5C179.4,278.9,179.2,278.9,178.6,278.7 M180,272.4c-0.4,1.7-0.5,2.5-0.9,4.2
	c0.4,0.1,0.6,0.1,1.1,0.2c0.7,0.1,1.2,0,1.6-0.4c0.2-0.3,0.4-0.8,0.5-1.5s0.1-1.2,0-1.5c-0.2-0.4-0.6-0.7-1.3-0.9
	C180.5,272.6,180.3,272.5,180,272.4"/>
<path class="st2" d="M192.1,283.3c0.3-3,0.5-4.5,0.8-7.6c0.1-1.1,0.6-2,1.3-2.6c0.8-0.6,1.8-0.9,3.1-0.8c1.2,0.1,2.2,0.5,2.9,1.3
	c0.6,0.7,0.9,1.6,0.9,2.8c0,0.6,0,0.9-0.1,1.4c-1.1-0.1-1.7-0.1-2.8-0.2c0-0.7,0.1-1,0.1-1.6c0.1-1-0.3-1.6-1.2-1.6
	c-0.9-0.1-1.4,0.4-1.5,1.4c-0.3,3.3-0.4,4.9-0.7,8.2c-0.1,1,0.4,1.6,1.3,1.7c1,0.1,1.5-0.4,1.6-1.4c0.1-0.8,0.1-1.2,0.1-2
	c1.1,0.1,1.7,0.1,2.8,0.2c0,0.6,0,0.9-0.1,1.5c-0.1,1.2-0.4,2.2-1.2,2.8c-0.8,0.7-2,1.1-3.5,0.9
	C193.2,287.6,191.8,286.1,192.1,283.3"/>
<path class="st2" d="M206.6,281.7c0,2.5,0,3.7,0,6.2c-1.2,0-1.7,0-2.9,0c0.2-5.9,0.2-8.9,0.4-14.8c1.5,0,2.3,0,3.8,0
	s2.6,0.4,3.3,1.1c0.6,0.7,0.9,1.7,0.9,3.1c0.1,1.8-0.5,3-1.6,3.7c0.9,2.7,1.3,4.1,2.3,6.8c-1.2,0-1.8,0.1-3,0.1
	c-0.8-2.5-1.1-3.7-1.8-6.2C207.4,281.7,207.1,281.7,206.6,281.7 M206.6,275.3c0,1.7,0,2.6,0,4.3c0.4,0,0.6,0,1.1,0
	c0.7,0,1.2-0.2,1.4-0.7c0.1-0.3,0.2-0.8,0.2-1.5s-0.1-1.2-0.3-1.5c-0.3-0.4-0.7-0.6-1.4-0.6C207.2,275.3,207,275.3,206.6,275.3"/>
<path class="st2" d="M215.4,287.7c-0.3-5.9-0.5-8.9-0.8-14.8c2.7-0.1,4-0.3,6.7-0.5c0.1,0.9,0.1,1.3,0.2,2.1
	c-1.7,0.2-2.5,0.3-4.2,0.4c0.1,1.6,0.2,2.3,0.3,3.9c1.3-0.1,1.9-0.1,3.1-0.3c0.1,0.9,0.1,1.3,0.2,2.1c-1.3,0.1-1.9,0.2-3.2,0.3
	c0.1,1.8,0.2,2.6,0.3,4.4c1.8-0.1,2.7-0.2,4.5-0.4c0.1,0.9,0.1,1.3,0.2,2.2C219.9,287.5,218.4,287.6,215.4,287.7"/>
<path class="st2" d="M224.4,287c0.5-6,0.7-9.1,1-15.1c1.3-0.2,2-0.3,3.3-0.5c2.1,5.7,3.1,8.5,5.4,14.1c-1.2,0.2-1.8,0.3-2.9,0.5
	c-0.4-1.2-0.6-1.8-1.1-3.1c-1.1,0.2-1.7,0.3-2.8,0.4c-0.1,1.3-0.1,2-0.2,3.3C226.1,286.8,225.6,286.8,224.4,287 M227.5,281.2
	c0.8-0.1,1.3-0.2,2.1-0.3c-0.8-2.4-1.1-3.6-1.9-6c-0.1,0-0.1,0-0.2,0C227.5,277.5,227.5,278.7,227.5,281.2"/>
<path class="st2" d="M231.9,273c-0.2-0.8-0.2-1.3-0.4-2.1c3.1-0.6,4.7-0.9,7.8-1.7c0.2,0.8,0.3,1.2,0.5,2.1
	c-1.1,0.3-1.6,0.4-2.7,0.6c1.1,4.9,1.7,7.4,2.8,12.4c-1.1,0.3-1.7,0.4-2.8,0.6c-1-5-1.5-7.5-2.6-12.4
	C233.5,272.7,233,272.8,231.9,273"/>
<path class="st2" d="M244.8,283.2c-1.5-5.7-2.3-8.6-3.8-14.3c1-0.3,1.5-0.4,2.6-0.7c1.6,5.7,2.4,8.6,4.1,14.3
	C246.6,282.7,246,282.9,244.8,283.2"/>
<path class="st2" d="M245.6,267.5c1-0.3,1.5-0.4,2.4-0.8c1.7,3.1,2.5,4.7,4.3,7.8c0.5,0.9,1,1.9,1.3,2.8c0,0.1,0.1,0.2,0.1,0.3
	c-0.4-1.3-0.7-2.4-0.8-3.3c-0.5-3.5-0.8-5.3-1.4-8.8c1-0.3,1.5-0.5,2.4-0.9c1,6,1.4,9,2.1,15c-1.1,0.4-1.7,0.6-2.9,1
	C250,275.5,248.5,272.9,245.6,267.5"/>
<path class="st2" d="M261.4,277.7c-2.2-5.5-3.3-8.3-5.5-13.8c2.5-1,3.8-1.5,6.3-2.7c0.4,0.8,0.5,1.2,0.9,1.9
	c-1.6,0.7-2.4,1.1-3.9,1.7c0.6,1.4,0.9,2.2,1.5,3.6c1.2-0.5,1.8-0.7,2.9-1.3c0.3,0.8,0.5,1.2,0.9,2c-1.2,0.5-1.8,0.8-3,1.3
	c0.7,1.6,1,2.4,1.7,4.1c1.7-0.7,2.6-1.1,4.2-1.9c0.4,0.8,0.6,1.2,0.9,2C265.7,276,264.3,276.6,261.4,277.7"/>
<path class="st2" d="M276.6,270.7c-2.8-5.2-4.2-7.8-7-13.1c1.4-0.7,2.1-1.1,3.4-1.9c1.3-0.8,2.5-1,3.5-0.7c0.8,0.3,1.6,1,2.4,2.2
	c0.6,1,0.9,2,0.9,3c0,1.2-0.6,2.2-1.8,2.8c-0.7,0.4-1,0.6-1.7,1c1.2,2.1,1.8,3.2,3,5.3C278.1,269.9,277.6,270.2,276.6,270.7
	 M275.2,262.2c0.4-0.2,0.6-0.3,1-0.5c0.7-0.4,1-0.9,0.9-1.4c0-0.3-0.2-0.8-0.6-1.5c-0.4-0.6-0.7-1-1-1.2c-0.4-0.2-1-0.2-1.6,0.2
	c-0.3,0.2-0.5,0.3-0.8,0.5C273.8,259.8,274.3,260.6,275.2,262.2"/>
<path class="st2" d="M286.7,264.8c-3.2-5-4.8-7.5-8-12.5c2.3-1.5,3.5-2.3,5.8-3.9c0.5,0.7,0.8,1,1.3,1.7c-1.4,1-2.1,1.5-3.6,2.5
	c0.9,1.3,1.3,1.9,2.2,3.2c1.1-0.7,1.6-1.1,2.7-1.9c0.5,0.7,0.7,1,1.2,1.8c-1.1,0.8-1.6,1.1-2.7,1.9c1,1.5,1.5,2.2,2.5,3.7
	c1.6-1.1,2.3-1.6,3.9-2.7c0.5,0.7,0.8,1.1,1.3,1.8C290.6,262.2,289.3,263.1,286.7,264.8"/>
<path class="st2" d="M288.4,249.7c-0.7-0.9-0.9-1.9-0.8-2.8c0.2-1,0.8-1.9,1.9-2.8c1-0.8,2-1.2,3.1-1.1c1,0.1,1.8,0.5,2.6,1.4
	c2,2.3,3,3.5,4.9,5.8c0.8,0.9,1.2,1.9,1,2.9c-0.1,1.1-0.8,2.2-2,3.2c-2.4,1.9-4.5,1.7-6.1-0.5C291.1,253.3,290.2,252.1,288.4,249.7
	 M298,252.5c-2.1-2.6-3.1-3.8-5.2-6.4c-0.6-0.8-1.3-0.9-2.1-0.3c-0.7,0.6-0.8,1.3-0.2,2.1c2,2.6,3.1,3.9,5.1,6.5
	c0.6,0.8,1.4,0.9,2.2,0.3C298.6,254,298.7,253.3,298,252.5"/>
<path class="st2" d="M305.1,250.7c-4-4.4-5.9-6.6-9.9-11c1.2-1.1,1.8-1.6,3-2.7c1.2-1.1,2.3-1.7,3.3-1.6c0.9,0.1,1.8,0.6,2.8,1.5
	c0.9,0.8,1.4,1.7,1.6,2.7c0.2,1.2-0.2,2.3-1.2,3.3c-0.6,0.6-0.9,0.8-1.5,1.4c1.6,1.8,2.5,2.6,4.1,4.4
	C306.4,249.5,306,249.9,305.1,250.7 M301.7,242.7c0.3-0.3,0.5-0.5,0.8-0.8c0.6-0.5,0.8-1.1,0.6-1.6c-0.1-0.3-0.4-0.7-1-1.3
	c-0.5-0.5-0.9-0.8-1.3-0.9c-0.5-0.1-1,0.1-1.6,0.6c-0.3,0.3-0.4,0.4-0.7,0.7C299.9,240.7,300.5,241.3,301.7,242.7"/>
<path class="st2" d="M316.6,239.2c-0.8,0.9-1.6,1.4-2.5,1.4s-1.8-0.5-2.8-1.4c-3.2-3-4.8-4.5-8-7.5c0.8-0.8,1.1-1.2,1.9-2.1
	c3.4,3,5.1,4.5,8.4,7.6c0.6,0.6,1.3,0.4,2-0.4c0.1-0.1,0.2-0.2,0.2-0.3c0.1-0.1,0.6-0.8,1.6-1.9c0.6,0.6,0.9,1,1.5,1.6
	C318.1,237.5,317.6,238,316.6,239.2"/>
<path class="st2" d="M320.6,234.3c-4.6-3.8-6.9-5.6-11.5-9.4c1.9-2.3,2.8-3.5,4.6-5.9c0.7,0.5,1,0.8,1.7,1.3
	c-1.1,1.5-1.7,2.3-2.8,3.7c1.2,1,1.8,1.4,3.1,2.4c0.9-1.1,1.3-1.6,2.1-2.8c0.7,0.5,1,0.8,1.7,1.3c-0.8,1.1-1.3,1.7-2.1,2.8
	c1.4,1.1,2.1,1.6,3.5,2.7c1.2-1.6,1.8-2.4,3-4c0.7,0.5,1.1,0.8,1.8,1.3C323.7,230.4,322.7,231.8,320.6,234.3"/>
<polygon points="37.4,154.1 31.5,159.2 15.5,159.2 9.8,154.1 9.8,115.7 15.5,110.6 31.5,110.6 37.4,115.7 37.4,123.2 28.4,123.2 
	28.4,119.6 18.8,119.6 18.8,150.2 28.4,150.2 28.4,146.3 37.4,146.3 "/>
<polygon class="st3" points="33.4,164.2 13.6,164.2 4.8,156.4 4.8,113.5 13.6,105.6 33.4,105.6 42.4,113.5 42.4,128.2 23.8,128.2 
	23.8,141.3 42.4,141.3 42.4,156.4 "/>
<path d="M71.2,159.2h-9.6L54,139.4h-2.7v19.8h-9v-48.6h21.6l5.7,5.1v17.8l-6.1,5.7L71.2,159.2z M51.3,130.4h9.3v-10.9h-9.3V130.4z"
	/>
<path class="st3" d="M78.6,164.2H58.2l-1.9-4.8v4.8h-19v-58.6h28.5l8.8,7.9v22.3l-5.2,4.9L78.6,164.2z M57.8,135.4l0.7,1.7l1.8-1.7
	H57.8z"/>
<polygon points="99.6,159.2 76.2,159.2 76.2,110.6 99.4,110.6 99.4,119.6 85.2,119.6 85.2,130.4 97.4,130.4 97.4,139.4 85.2,139.4 
	85.2,150.2 99.6,150.2 "/>
<polygon class="st3" points="104.6,164.2 71.2,164.2 71.2,105.6 104.4,105.6 104.4,124.6 90.2,124.6 90.2,125.4 102.4,125.4 
	102.4,144.4 90.2,144.4 90.2,145.2 104.6,145.2 "/>
<path d="M127.5,159.2l-2.2-10.8h-9.4l-2.2,10.8h-9.2l9.7-48.6h12.6l9.7,48.6H127.5z M123.5,139.4l-2.9-14.5l-2.9,14.5H123.5z"/>
<polygon class="st3" points="121.8,105.6 131,105.6 142.7,164.2 123.4,164.2 121.2,153.4 120,153.4 117.8,164.2 98.5,164.2 
	110.2,105.6 119.3,105.6 "/>
<polygon points="159.9,119.6 151,119.6 151,159.2 142,159.2 142,119.6 133.1,119.6 133.1,110.6 159.9,110.6 "/>
<polygon class="st3" points="156,164.2 137,164.2 137,124.6 128.1,124.6 128.1,105.6 164.9,105.6 164.9,124.6 156,124.6 "/>
<rect x="164.8" y="110.6" width="9" height="48.6"/>
<rect x="159.8" y="105.6" class="st3" width="19" height="58.6"/>
<path d="M194.3,138.6c1.3-6,2.4-10.8,3.2-14.3s1.8-8.1,3.1-13.8h9.2L199,159.1h-9.2l-10.9-48.6h9.2c1.3,5.7,2.3,10.3,3,13.8
	C191.8,127.9,192.9,132.6,194.3,138.6"/>
<path class="st3" d="M202.9,164.2h-17.2l-13.1-58.6H192l2.2,10c0.4-1.9,0.9-3.9,1.4-6.1l0.9-3.9h19.4L202.9,164.2z"/>
<rect x="214.7" y="110.6" width="9" height="48.6"/>
<rect x="209.7" y="105.6" class="st3" width="19" height="58.6"/>
<polygon points="255.4,119.6 246.5,119.6 246.5,159.2 237.5,159.2 237.5,119.6 228.6,119.6 228.6,110.6 255.4,110.6 "/>
<polygon class="st3" points="251.5,164.2 232.5,164.2 232.5,124.6 223.6,124.6 223.6,105.6 260.4,105.6 260.4,124.6 251.5,124.6 "/>
<polygon points="280.2,141.3 280.2,159.2 271.1,159.2 271.1,141.2 260.4,110.6 269.6,110.6 275.7,128.7 281.7,110.6 291.3,110.6 "/>
<polygon class="st3" points="285.2,164.2 266.1,164.2 266.1,142.1 253.3,105.6 273.2,105.6 275.7,113 278.1,105.6 298.4,105.6 
	285.2,142.2 "/>
<rect x="291.9" y="129.8" width="13.5" height="8.4"/>
<rect x="286.9" y="124.8" class="st3" width="23.5" height="18.4"/>
<polygon points="339.4,154.1 333.5,159.2 317.4,159.2 311.7,154.1 311.7,115.7 317.5,110.6 333.5,110.6 339.4,115.7 339.4,123.3 
	330.4,123.3 330.4,119.6 320.7,119.6 320.7,150.2 330.4,150.2 330.4,139.4 324.3,139.4 324.3,130.4 339.4,130.4 "/>
<polygon class="st3" points="335.4,164.2 315.5,164.2 306.7,156.4 306.7,113.4 315.6,105.6 335.4,105.6 344.4,113.4 344.4,156.4 "/>
<polygon points="364.2,141.3 364.2,159.2 355.1,159.2 355.1,141.2 344.3,110.6 353.5,110.6 359.7,128.7 365.7,110.6 375.2,110.6 "/>
<polygon class="st3" points="369.2,164.2 350.1,164.2 350.1,142.1 337.3,105.6 357.1,105.6 359.6,113 362.1,105.6 382.3,105.6 
	369.2,142.2 "/>
<polygon points="413.8,159.2 404.8,159.2 404.8,131.8 396.9,148.5 389.1,131.8 389.1,159.2 380.2,159.2 380.2,110.6 389.1,110.6 
	396.9,127.3 404.8,110.6 413.8,110.6 "/>
<polygon class="st3" points="418.8,164.2 399.8,164.2 399.8,154.3 396.9,160.3 394.1,154.4 394.1,164.2 375.2,164.2 375.2,105.6 
	392.3,105.6 396.9,115.5 401.6,105.6 418.8,105.6 "/>
<polygon points="37.4,154.1 31.5,159.2 15.5,159.2 9.8,154.1 9.8,115.7 15.5,110.6 31.5,110.6 37.4,115.7 37.4,123.2 28.4,123.2 
	28.4,119.6 18.8,119.6 18.8,150.2 28.4,150.2 28.4,146.3 37.4,146.3 "/>
<path d="M71.2,159.2h-9.6L54,139.4h-2.7v19.8h-9v-48.6h21.6l5.7,5.1v17.8l-6.1,5.7L71.2,159.2z M51.3,130.4h9.3v-10.9h-9.3V130.4z"
	/>
<polygon points="99.6,159.2 76.2,159.2 76.2,110.6 99.4,110.6 99.4,119.6 85.2,119.6 85.2,130.4 97.4,130.4 97.4,139.4 85.2,139.4 
	85.2,150.2 99.6,150.2 "/>
<path d="M127.5,159.2l-2.2-10.8h-9.4l-2.2,10.8h-9.2l9.7-48.6h12.6l9.7,48.6H127.5z M123.5,139.4l-2.9-14.5l-2.9,14.5H123.5z"/>
<polygon points="159.9,119.6 151,119.6 151,159.2 142,159.2 142,119.6 133.1,119.6 133.1,110.6 159.9,110.6 "/>
<rect x="164.8" y="110.6" width="9" height="48.6"/>
<path d="M194.3,138.6c1.3-6,2.4-10.8,3.2-14.3s1.8-8.1,3.1-13.8h9.2L199,159.1h-9.2l-10.9-48.6h9.2c1.3,5.7,2.3,10.3,3,13.8
	C191.8,127.9,192.9,132.6,194.3,138.6"/>
<rect x="214.7" y="110.6" width="9" height="48.6"/>
<polygon points="255.4,119.6 246.5,119.6 246.5,159.2 237.5,159.2 237.5,119.6 228.6,119.6 228.6,110.6 255.4,110.6 "/>
<polygon points="280.2,141.3 280.2,159.2 271.1,159.2 271.1,141.2 260.4,110.6 269.6,110.6 275.7,128.7 281.7,110.6 291.3,110.6 "/>
<rect x="291.9" y="129.8" width="13.5" height="8.4"/>
<polygon points="339.4,154.1 333.5,159.2 317.4,159.2 311.7,154.1 311.7,115.7 317.5,110.6 333.5,110.6 339.4,115.7 339.4,123.3 
	330.4,123.3 330.4,119.6 320.7,119.6 320.7,150.2 330.4,150.2 330.4,139.4 324.3,139.4 324.3,130.4 339.4,130.4 "/>
<polygon points="364.2,141.3 364.2,159.2 355.1,159.2 355.1,141.2 344.3,110.6 353.5,110.6 359.7,128.7 365.7,110.6 375.2,110.6 "/>
<polygon points="413.8,159.2 404.8,159.2 404.8,131.8 396.9,148.5 389.1,131.8 389.1,159.2 380.2,159.2 380.2,110.6 389.1,110.6 
	396.9,127.3 404.8,110.6 413.8,110.6 "/>
<rect x="183.8" y="29.1" class="st2" width="44.8" height="2.3"/>
<polygon class="st2" points="183.8,28.2 179.2,11.4 190.5,28.2 "/>
<polygon class="st2" points="191.4,28.2 188.6,11.4 198.2,28.2 "/>
<polygon class="st2" points="199,28.2 197.7,11.6 205.8,28.2 "/>
<polygon class="st2" points="228.7,28.2 233.2,11.4 221.9,28.2 "/>
<polygon class="st2" points="221.1,28.2 223.9,11.4 214.3,28.2 "/>
<polygon class="st2" points="213.4,28.2 214.8,11.6 206.7,28.2 "/>
<line class="st5" x1="183.8" y1="33.6" x2="228.6" y2="33.6"/>
<path class="st2" d="M228.6,40.5h-44.8v-4.8h44.8V40.5z M191.6,39.8l1.7-1.7l-1.7-1.7l-1.7,1.7L191.6,39.8z M186.8,39.8l1.7-1.7
	l-1.7-1.7l-1.7,1.7L186.8,39.8z M196.5,39.8l1.7-1.7l-1.7-1.7l-1.7,1.7L196.5,39.8z M201.4,39.8l1.7-1.7l-1.7-1.7l-1.7,1.7
	L201.4,39.8z M206.3,39.8l1.7-1.7l-1.7-1.7l-1.7,1.7L206.3,39.8z M211.2,39.8l1.7-1.7l-1.7-1.7l-1.7,1.7L211.2,39.8z M216.1,39.8
	l1.7-1.7l-1.7-1.7l-1.7,1.7L216.1,39.8z M221,39.8l1.7-1.7l-1.7-1.7l-1.7,1.7L221,39.8z M225.9,39.8l1.7-1.7l-1.7-1.7l-1.7,1.7
	L225.9,39.8z"/>
<path class="st2" d="M181.1,11.4c0-1-0.8-1.8-1.8-1.8s-1.8,0.8-1.8,1.8s0.8,1.8,1.8,1.8C180.2,13.2,181.1,12.4,181.1,11.4"/>
<path class="st2" d="M190.4,11.4c0-1-0.8-1.8-1.8-1.8s-1.8,0.8-1.8,1.8s0.8,1.8,1.8,1.8C189.6,13.2,190.4,12.4,190.4,11.4"/>
<path class="st2" d="M199.5,11.6c0-1-0.8-1.8-1.8-1.8s-1.8,0.8-1.8,1.8s0.8,1.8,1.8,1.8C198.7,13.5,199.5,12.6,199.5,11.6"/>
<path class="st2" d="M216.6,11.6c0-1-0.8-1.8-1.8-1.8s-1.8,0.8-1.8,1.8s0.8,1.8,1.8,1.8C215.8,13.5,216.6,12.6,216.6,11.6"/>
<path class="st2" d="M225.7,11.6c0-1-0.8-1.8-1.8-1.8s-1.8,0.8-1.8,1.8s0.8,1.8,1.8,1.8C224.9,13.5,225.7,12.6,225.7,11.6"/>
<path class="st2" d="M235.1,11.6c0-1-0.8-1.8-1.8-1.8s-1.8,0.8-1.8,1.8s0.8,1.8,1.8,1.8C234.2,13.5,235.1,12.6,235.1,11.6"/>
</svg>
