<svg xmlns="http://www.w3.org/2000/svg" viewBox="0 0 578.04 88.52"><defs><style>.cls-1,.cls-2{fill:#333;}.cls-2{fill-rule:evenodd;}</style></defs><title>Asset 2</title><g id="Layer_2" data-name="Layer 2"><g id="Layer_1-2" data-name="Layer 1"><path class="cls-1" d="M52.22,15.27a21,21,0,0,1,6.09-.74,2.93,2.93,0,0,0,1.42-.37,1.31,1.31,0,0,0,.08-2.23,6.89,6.89,0,0,0-1.16-.65L40.77,3.06c-2.12-1-4.24-2-6.38-2.88-1.06-.46-1.66,0-1.69,1.13,0,.31.08.63.14.93q2.42,11.32,4.86,22.64c.27,1.25.54,2.5.89,3.74a1.31,1.31,0,0,0,2.18.74,2.78,2.78,0,0,0,1.11-1.73,31.73,31.73,0,0,1,1-3.52,15.65,15.65,0,0,1,2.37-4.28A44.29,44.29,0,0,1,52.08,43c0,16.42-9.74,25.8-21.75,25.8S8.59,59.46,8.59,43c0-15.64,9.63-32,20.16-33.55h0s.68-.07.55-.66L27.59.87a.71.71,0,0,0-.82-.64C12.62,3.34,0,24.28,0,44.3,0,66,13.58,78.35,30.33,78.35S60.67,66,60.67,44.3A56.31,56.31,0,0,0,52.22,15.27Z"/><path class="cls-1" d="M578,46.81a20.42,20.42,0,0,0-1.22-7.2,15.35,15.35,0,0,0-3.41-5.41,14.5,14.5,0,0,0-5.21-3.35,18.5,18.5,0,0,0-6.62-1.15,18.93,18.93,0,0,0-7.65,1.48,17,17,0,0,0-5.74,4,17.61,17.61,0,0,0-3.62,6,21,21,0,0,0-1.26,7.32,24.71,24.71,0,0,0,1.44,8.8,18.26,18.26,0,0,0,4,6.37,16.48,16.48,0,0,0,5.93,3.89A20.32,20.32,0,0,0,562,68.87a30.1,30.1,0,0,0,4.13-.3,21.6,21.6,0,0,0,4.19-1,19.2,19.2,0,0,0,3.95-1.93c.41-.26.8-.55,1.18-.85l-4.35-5.54c-.49.27-1,.56-1.63.88a17.87,17.87,0,0,1-2.81,1.15,12.55,12.55,0,0,1-3.84.52A9.81,9.81,0,0,1,555.58,59a13.31,13.31,0,0,1-3.77-7.85H577s1,.17,1-1.31V46.81Zm-22.83-8.41a9.48,9.48,0,0,1,6.59-2.15,9.9,9.9,0,0,1,3.75.65,7.41,7.41,0,0,1,2.65,1.78,7.17,7.17,0,0,1,1.56,2.63,9.86,9.86,0,0,1,.51,3.19h-18.1A10.17,10.17,0,0,1,555.21,38.41Z"/><path class="cls-1" d="M130.74,18.46a27.38,27.38,0,0,0-9.37-6,32.64,32.64,0,0,0-12.13-2.17H86.86V68.89h22.39a32.91,32.91,0,0,0,12.13-2.15,26.61,26.61,0,0,0,15.41-15.33,31.75,31.75,0,0,0,2.15-11.84,31.77,31.77,0,0,0-2.15-11.84A27,27,0,0,0,130.74,18.46ZM128,48.38a18.3,18.3,0,0,1-4.1,6.6,17.75,17.75,0,0,1-6.46,4.15,24,24,0,0,1-8.58,1.44H96.2v-42h12.65A24.07,24.07,0,0,1,117.43,20a17.82,17.82,0,0,1,6.46,4.15,18.32,18.32,0,0,1,4.1,6.61,25.32,25.32,0,0,1,1.44,8.81A25.32,25.32,0,0,1,128,48.38Z"/><path class="cls-1" d="M353.55,35a16.7,16.7,0,0,0-5.91-3.89,22.53,22.53,0,0,0-15.47,0A16.84,16.84,0,0,0,326.22,35a17.28,17.28,0,0,0-3.82,6.15A23.1,23.1,0,0,0,321,49.23a23.22,23.22,0,0,0,1.35,8.15,17.66,17.66,0,0,0,3.82,6.19,16.58,16.58,0,0,0,5.95,3.93,22.5,22.5,0,0,0,15.47,0,16.44,16.44,0,0,0,5.91-3.93,17.63,17.63,0,0,0,3.78-6.19,23.54,23.54,0,0,0,1.33-8.15,23.42,23.42,0,0,0-1.33-8.12A17.25,17.25,0,0,0,353.55,35Zm-6.17,23.68q-2.43,3.19-7.46,3.19t-7.56-3.2q-2.44-3.21-2.44-9.32t2.44-9.36q2.44-3.24,7.56-3.24t7.46,3.22q2.42,3.22,2.42,9.38T347.38,58.64Z"/><path class="cls-1" d="M224.07,15.63q-2.61,0-3.54,1a5.37,5.37,0,0,0-.94,3.62,5.06,5.06,0,0,0,.9,3.46q.9,1,3.51,1t3.53-1q1-1,1-3.6a5.07,5.07,0,0,0-.92-3.48Q226.65,15.63,224.07,15.63Z"/><path class="cls-1" d="M429.79,35a16.69,16.69,0,0,0-5.91-3.89,22.53,22.53,0,0,0-15.47,0A16.82,16.82,0,0,0,402.46,35a17.33,17.33,0,0,0-3.82,6.15,23.17,23.17,0,0,0-1.35,8.12,23.29,23.29,0,0,0,1.35,8.15,17.71,17.71,0,0,0,3.82,6.19,16.56,16.56,0,0,0,5.95,3.93,22.5,22.5,0,0,0,15.47,0,16.43,16.43,0,0,0,5.91-3.93,17.6,17.6,0,0,0,3.78-6.19,23.52,23.52,0,0,0,1.33-8.15,23.4,23.4,0,0,0-1.33-8.12A17.22,17.22,0,0,0,429.79,35Zm-6.17,23.68q-2.42,3.19-7.46,3.19t-7.56-3.2q-2.44-3.21-2.44-9.32t2.44-9.36q2.44-3.24,7.56-3.24t7.46,3.22Q426,43.15,426,49.3T423.62,58.64Z"/><path class="cls-1" d="M187.67,59.73v-.21A1.53,1.53,0,0,0,187.67,59.73Z"/><path class="cls-1" d="M179.92,46.65a20.44,20.44,0,0,0-1.22-7.2A15.34,15.34,0,0,0,175.3,34a14.49,14.49,0,0,0-5.21-3.36,18.51,18.51,0,0,0-6.62-1.15A18.92,18.92,0,0,0,155.82,31a17,17,0,0,0-5.74,4,17.61,17.61,0,0,0-3.62,6,21,21,0,0,0-1.26,7.32,24.66,24.66,0,0,0,1.44,8.8,18.28,18.28,0,0,0,4,6.37,16.48,16.48,0,0,0,5.93,3.89,20.32,20.32,0,0,0,7.38,1.32,30,30,0,0,0,4.13-.3,21.63,21.63,0,0,0,4.19-1,19.17,19.17,0,0,0,3.95-1.93c.41-.26.8-.55,1.18-.85L173,59.08c-.49.27-1,.56-1.63.88a17.88,17.88,0,0,1-2.82,1.15,12.53,12.53,0,0,1-3.83.52,9.82,9.82,0,0,1-7.26-2.74A13.32,13.32,0,0,1,153.7,51h25.2s1,.17,1-1.31V46.65ZM157.1,38.24a9.47,9.47,0,0,1,6.59-2.15,9.9,9.9,0,0,1,3.75.65,7.41,7.41,0,0,1,2.65,1.78,7.21,7.21,0,0,1,1.56,2.62,9.88,9.88,0,0,1,.51,3.19h-18.1A10.17,10.17,0,0,1,157.1,38.24Z"/><path class="cls-1" d="M533.6,59.3a7.84,7.84,0,0,1-6.26,2.53q-4.66,0-6.87-3.2t-2.22-9.32q0-6.12,2.22-9.36t6.87-3.24a7.81,7.81,0,0,1,6.27,2.56L539,34.2a15.18,15.18,0,0,0-4.63-3.13,18.72,18.72,0,0,0-14.06,0A15.24,15.24,0,0,0,514.89,35a17.62,17.62,0,0,0-3.47,6.15,25.22,25.22,0,0,0-1.23,8.12,25.35,25.35,0,0,0,1.23,8.15,18,18,0,0,0,3.47,6.19,15,15,0,0,0,5.41,3.93,18.69,18.69,0,0,0,14.06,0A14.91,14.91,0,0,0,539,64.35l-5.36-5Z"/><path class="cls-1" d="M272.11,29.63h-6.88c-.69,0-1,.32-1,1q0,.71,0,1.39a18,18,0,0,0-2.12-1,22.52,22.52,0,0,0-15.49,0,16.85,16.85,0,0,0-6,3.9,17.36,17.36,0,0,0-3.82,6.16,23.16,23.16,0,0,0-1.35,8.12,23.27,23.27,0,0,0,1.35,8.16,17.72,17.72,0,0,0,3.82,6.2,16.61,16.61,0,0,0,6,3.93,22.52,22.52,0,0,0,15.49,0,17.61,17.61,0,0,0,2.09-1v.13c0,.86,0,1.72,0,2.58h0c0,.19,0,.38,0,.56-.45,7.94-7.43,12.46-14.82,9.59a13.87,13.87,0,0,1-6.58-4.71S237.71,81,237.71,81a20.17,20.17,0,0,0,19.46,7.2c7.66-1.32,13.14-5.61,14.85-13.09a33.5,33.5,0,0,0,.28-3.79V29.66A1.5,1.5,0,0,0,272.11,29.63ZM264.2,51a13.79,13.79,0,0,1-2.36,7.58q-2.43,3.19-7.47,3.19t-7.57-3.21q-2.45-3.21-2.45-9.33t2.45-9.37q2.44-3.25,7.57-3.25t7.47,3.23a14,14,0,0,1,2.36,7.62Z"/><path class="cls-1" d="M312.92,38.26a13.34,13.34,0,0,0-2.49-4.64,11.1,11.1,0,0,0-4.09-3,13.87,13.87,0,0,0-5.62-1.08,16.29,16.29,0,0,0-3.62.38A14.1,14.1,0,0,0,294,31a17.07,17.07,0,0,0-2.75,1.7,20.9,20.9,0,0,0-1.88,1.62V31.55c0-.31,0-.62,0-.93a.92.92,0,0,0-1.05-1h-7V68.84h8.1V44.13a9.23,9.23,0,0,1,3.5-6l.5-.29a9.67,9.67,0,0,1,4.31-1.08c5.9.06,6.69,5.76,6.78,8V68.84h9.32V44.2A19.81,19.81,0,0,0,312.92,38.26Z"/><path class="cls-1" d="M503.16,30.15a14,14,0,0,0-6.35-.18,16.83,16.83,0,0,0-3.9,1.18,15.24,15.24,0,0,0-2.7,1.56V32c0-.37,0-.74,0-1.11,0-.85-.36-1.26-1.12-1.26-2.55,0-4.2,0-6.75,0a1.39,1.39,0,0,0-.21,0v39h8.09q0-7.22,0-14.45c0-.07,0-.14,0-.21s0-.14,0-.21q0-6.14,0-12.29l.05,0a20.69,20.69,0,0,1,3.86-2.79c4.24-2.17,8.14-1,11.17.74v-8.4C505.07,31,503.38,30.21,503.16,30.15Z"/><path class="cls-2" d="M187.55,62.86c0-1,0-2.08,0-3.12,0-.73.26-.89.9-.54a22.34,22.34,0,0,0,5.61,2.33,11.72,11.72,0,0,0,5.83,0A3.85,3.85,0,0,0,203,59a3.49,3.49,0,0,0-1.53-4.37,14.48,14.48,0,0,0-3.67-1.78A39.13,39.13,0,0,1,191.56,50a9.82,9.82,0,0,1-5.13-7.25c-.77-5.21,1.42-9.69,6.62-11.88a18.06,18.06,0,0,1,6.16-1.31,21.57,21.57,0,0,1,8.65,1.29,19.14,19.14,0,0,1,2.5,1.3.62.62,0,0,1,.33.6c0,1.95,0,3.9,0,5.85,0,.69-.28.84-.91.52-1.08-.56-2.14-1.15-3.27-1.62a14.68,14.68,0,0,0-6.7-1.22,6.19,6.19,0,0,0-2.74.76,3.46,3.46,0,0,0-.59,5.59,12.75,12.75,0,0,0,4.33,2.27,47.81,47.81,0,0,1,5.83,2.46A10.2,10.2,0,0,1,212,53.15a11.16,11.16,0,0,1-5.1,13.58,18,18,0,0,1-6.74,2A23.21,23.21,0,0,1,190,67.58a14.31,14.31,0,0,1-2.06-.88.73.73,0,0,1-.44-.73C187.56,64.93,187.55,63.9,187.55,62.86Z"/><path class="cls-1" d="M228.13,31.45s0-.09,0-.14a1.23,1.23,0,0,0,0-.17,1.43,1.43,0,0,0-1.43-1.43h-5.32a1.43,1.43,0,0,0-1.43,1.43,1.3,1.3,0,0,0,0,.18s0,.08,0,.13V67.2s0,.05,0,.08a.89.89,0,0,0,0,.1,1.43,1.43,0,0,0,1.43,1.43h5.32a1.43,1.43,0,0,0,1.43-1.43s0-.07,0-.1,0,0,0-.08Z"/><path class="cls-2" d="M366.15,62.84c0-1,0-2.09,0-3.12,0-.73.26-.89.91-.54a22.38,22.38,0,0,0,5.62,2.33,11.74,11.74,0,0,0,5.85,0,3.86,3.86,0,0,0,3.09-2.62,3.5,3.5,0,0,0-1.54-4.38,14.49,14.49,0,0,0-3.68-1.79A39.43,39.43,0,0,1,370.18,50,9.85,9.85,0,0,1,365,42.72c-.77-5.22,1.43-9.71,6.64-11.9a18.12,18.12,0,0,1,6.17-1.32,21.62,21.62,0,0,1,8.67,1.29A19,19,0,0,1,389,32.1a.62.62,0,0,1,.33.6c0,2,0,3.91,0,5.86,0,.69-.28.84-.91.52-1.08-.56-2.15-1.16-3.28-1.62a14.72,14.72,0,0,0-6.71-1.22,6.19,6.19,0,0,0-2.75.76,3.47,3.47,0,0,0-.59,5.6,12.79,12.79,0,0,0,4.34,2.27,47.68,47.68,0,0,1,5.85,2.46,10.23,10.23,0,0,1,5.33,5.78,11.19,11.19,0,0,1-5.12,13.61,18.06,18.06,0,0,1-6.75,2,23.28,23.28,0,0,1-10.1-1.1,14.44,14.44,0,0,1-2.06-.88.73.73,0,0,1-.44-.73C366.17,64.93,366.16,63.88,366.15,62.84Z"/><path class="cls-1" d="M474.08,30.71a1.11,1.11,0,0,0-1-1.21h-5.93a1.11,1.11,0,0,0-1,1.21,1.35,1.35,0,0,0,0,.15s0,.05,0,.08V54a10.92,10.92,0,0,1-.55,3.59,7.33,7.33,0,0,1-1.55,2.66,6.54,6.54,0,0,1-2.42,1.62,9.1,9.1,0,0,1-3.23.54,9.31,9.31,0,0,1-3.28-.55,6.71,6.71,0,0,1-2.52-1.65,7.28,7.28,0,0,1-1.62-2.78,12.52,12.52,0,0,1-.56-4V30.75a.66.66,0,0,0,0-.14s0,0,0,0a1,1,0,0,0-1-1.07h-5.89a1,1,0,0,0-1,1.07s0,.07,0,.11a.66.66,0,0,0,0,.07V54.2a17.8,17.8,0,0,0,1,6.39,11.84,11.84,0,0,0,3,4.56,12.53,12.53,0,0,0,4.84,2.73,21.55,21.55,0,0,0,6.47.9h.08a21.18,21.18,0,0,0,6.83-1,13.28,13.28,0,0,0,5-2.94A12.42,12.42,0,0,0,473,60.12a18.08,18.08,0,0,0,1-6.33V30.71Z"/></g></g></svg>