<?xml version="1.0" encoding="utf-8"?>
<!-- Generator: Adobe Illustrator 21.1.0, SVG Export Plug-In . SVG Version: 6.00 Build 0)  -->
<svg version="1.1" id="Layer_1" xmlns="http://www.w3.org/2000/svg" xmlns:xlink="http://www.w3.org/1999/xlink" x="0px" y="0px"
	 viewBox="0 0 1280 485.6" style="enable-background:new 0 0 1280 485.6;" xml:space="preserve">
<style type="text/css">
	.st0{display:none;}
	.st1{display:inline;fill:#DBDBDB;}
	.st2{display:inline;fill:#FFFFFF;}
	.st3{display:none;fill:#DBDBDB;}
	.st4{display:inline;fill:none;stroke:#000000;stroke-width:0.299;stroke-miterlimit:10;}
	.st5{display:inline;fill:none;stroke:#000000;stroke-width:0.25;stroke-miterlimit:10;}
	.st6{display:inline;fill:none;stroke:#000000;stroke-width:0.4325;stroke-miterlimit:10;}
	.st7{display:inline;fill:none;stroke:#000000;stroke-width:0.5992;stroke-miterlimit:10;}
	.st8{fill:#231F20;}
	.st9{display:inline;}
	.st10{fill:#FFFFFF;}
	.st11{fill:#4F4F4F;}
	.st12{display:inline;fill:none;stroke:#0C002D;stroke-miterlimit:10;}
	.st13{fill:#ADADAD;}
	.st14{fill:#090011;}
</style>
<g id="Layer_1_1_">
	<g id="without_grid" class="st0">
		<path id="XMLID_343_" class="st1" d="M409.9,144.4c0,0-66.9,7-96,26.7c0,0,33.8-10.9,45.1-6.1c0,0-58.3,20-79.7,44.3
			S245.6,257,245.6,257s25-30.5,30.9-31.6c0,0-55.7,119.9-60.4,240.5c0,0,113.7-229,118.9-238.7c0,0,55.2-55,74.9-57.4
			C409.9,169.9,432.8,141.1,409.9,144.4z"/>
		<path id="XMLID_342_" class="st2" d="M343,185.5c0,0-41.1,15.8-48.4,27.6c-7.4,11.8-17,44.9-17,44.9s13.5-26.2,26.7-33.2
			c0,0-20.2,38.7-26.7,57.2c0,0,29.5-59.2,39.5-62.5c0,0,28.6-29.1,44.9-31.9c0,0-36.2,12.7-43.9,19
			C318.1,206.6,324.3,194.8,343,185.5z"/>
	</g>
	<path id="XMLID_110_" class="st3" d="M519.3,495.7c-0.3-0.7-0.6-1.4-0.8-2.1c0,2.3,0.1,4.6,0.1,6.8c0.3-1.4,0.5-2.9,0.8-4.3
		C519.4,496,519.4,495.8,519.3,495.7z"/>
	<path id="XMLID_111_" class="st3" d="M519.4,496.2c0-0.1,0-0.1,0-0.2s-0.1-0.2-0.1-0.3C519.4,495.8,519.4,496,519.4,496.2z"/>
	<path id="XMLID_112_" class="st3" d="M518.5,490.8c0,0.3,0,0.6,0,0.9c0,0.6,0,1.3,0,1.9c0.3,0.7,0.6,1.4,0.8,2.1
		C519,494,518.7,492.4,518.5,490.8z"/>
	<path id="with_grid_2" class="st3" d="M785.4,253.9c-0.3,0-0.6,0-0.9,0c-0.4,0-0.8,0-1.2,0c-13.9,0.1-27.2,2.7-39.6,7.2
		c-9.5,3.5-18.4,8.2-26.5,13.9c9.9-3.6,20.3-6,31.2-6.9c-17.4,5-33.2,13.9-46.3,25.7c-12.4,11.1-22.3,24.8-29.1,40.2
		c-4.8,10.8-7.9,22.5-9.2,34.7c1.2-7.2,3-14.2,5.5-20.9c6.1-16.6,15.8-31.5,28.2-43.6c-14.2,33.6-22,70.6-22,109.4
		c0,0.6,0,1.3,0,1.9c0,2.3,0.1,4.6,0.1,6.8c0.3-1.5,0.6-3,0.9-4.5c12.1-59.4,47.4-110.3,96-143c0.8-0.5,1.5-1,2.3-1.5
		c0.6-0.4,1.2-0.8,1.8-1.2c1.4-0.7,2.9-1.2,4.6-1.4c0.1,0,0.1-0.1,0.2-0.2c0.2-0.1,0.4-0.3,0.6-0.5c1.2-1,2.3-2.1,3.3-3.2
		c0.8-1,1.6-2,2.2-3.1c0.5-0.8,1-1.7,1.4-2.6c0.1-0.3,0.3-0.6,0.4-0.8c0.2-0.5,0.3-1,0.3-1.6C789.4,256.4,787.7,254.4,785.4,253.9z"
		/>
	<g id="mustache_grid_1" class="st0">
		<circle id="XMLID_2_" class="st4" cx="784.6" cy="258.8" r="4.8"/>
		<circle id="XMLID_5_" class="st5" cx="738.9" cy="309.5" r="4.8"/>
		<circle id="XMLID_3_" class="st5" cx="766.3" cy="251" r="24.7"/>
		<circle id="XMLID_4_" class="st5" cx="782.6" cy="283.6" r="12.9"/>
		<circle id="XMLID_6_" class="st6" cx="784.6" cy="371.6" r="117.6"/>
		<circle id="XMLID_7_" class="st5" cx="758.1" cy="385.4" r="117.6"/>
		<circle id="XMLID_12_" class="st7" cx="957.4" cy="413.7" r="281.9"/>
		<circle id="XMLID_13_" class="st5" cx="899.5" cy="463.8" r="227.6"/>
		<circle id="XMLID_8_" class="st5" cx="780.8" cy="381.3" r="117.6"/>
		<circle id="XMLID_10_" class="st5" cx="779.9" cy="388.3" r="117.6"/>
	</g>
	<g id="mustache_grid_2" class="st0">
		<circle id="XMLID_36_" class="st4" cx="784.4" cy="258.9" r="5"/>
		<circle id="XMLID_34_" class="st5" cx="751.3" cy="354.9" r="45.2"/>
		<circle id="XMLID_38_" class="st5" cx="751.3" cy="344.9" r="61.1"/>
		<circle id="XMLID_32_" class="st5" cx="766.3" cy="251" r="24.7"/>
		<circle id="XMLID_31_" class="st5" cx="782.6" cy="283.6" r="12.9"/>
		<circle id="XMLID_30_" class="st6" cx="784.6" cy="371.6" r="117.6"/>
		<circle id="XMLID_29_" class="st5" cx="758.1" cy="385.4" r="117.6"/>
		<circle id="XMLID_28_" class="st7" cx="957.4" cy="413.7" r="281.9"/>
		<circle id="XMLID_27_" class="st5" cx="899.5" cy="463.8" r="227.6"/>
		<circle id="XMLID_26_" class="st5" cx="780.8" cy="381.3" r="117.6"/>
		<circle id="XMLID_9_" class="st5" cx="779.9" cy="388.3" r="117.6"/>
		<circle id="XMLID_37_" class="st5" cx="738.1" cy="309.4" r="23.3"/>
		<circle id="XMLID_40_" class="st5" cx="715.9" cy="331.6" r="23.3"/>
		<circle id="XMLID_41_" class="st5" cx="730.2" cy="314.3" r="18.4"/>
		<circle id="XMLID_42_" class="st5" cx="719.2" cy="324.3" r="18.4"/>
	</g>
</g>
<g id="Text">
	<g id="code">
		<g id="XMLID_271_">
			<path id="XMLID_292_" class="st8" d="M83.8,318.4c-0.8,0.9-1.5,1.6-2.3,2.1c-0.7,0.5-1.8,0.8-3.2,0.8c-1.3,0-2.7-0.4-3.9-1.1
				c-1.3-0.7-2.8-1.6-4.6-2.5c-1.8-0.9-3.9-1.8-6.3-2.5c-2.4-0.7-5.5-1.1-9.1-1.1c-4.6,0-8.6,0.8-12.1,2.3s-6.3,3.7-8.6,6.6
				s-4,6.3-5.1,10.4s-1.7,8.7-1.7,13.8c0,5.3,0.6,10.1,1.9,14.3c1.2,4.2,3,7.7,5.4,10.5c2.3,2.8,5.2,5,8.5,6.4
				c3.3,1.5,7.1,2.2,11.2,2.2c4.2,0,7.5-0.5,10.1-1.4c2.6-0.9,4.8-2,6.5-3.1c1.8-1.1,3.3-2.2,4.6-3.1c1.3-0.9,2.8-1.4,4.4-1.4
				c2.1,0,3.7,0.7,4.8,2.2l7.5,8.8c-2.9,3.1-6,5.7-9.4,7.9c-3.4,2.1-6.9,3.8-10.6,5.1c-3.6,1.3-7.4,2.2-11.3,2.7s-7.7,0.8-11.6,0.8
				c-6.7,0-13-1.2-19-3.5c-5.9-2.3-11.1-5.7-15.5-10.1s-7.9-9.8-10.5-16.3C1.3,362.6,0,355.3,0,347.1c0-7.4,1.1-14.2,3.4-20.5
				s5.7-11.7,10.1-16.3c4.5-4.6,10-8.2,16.5-10.8c6.6-2.6,14.1-3.9,22.7-3.9c8.1,0,15.3,1.2,21.4,3.6s11.6,5.9,16.5,10.3L83.8,318.4
				z"/>
			<path id="XMLID_289_" class="st8" d="M149.2,295.7c6.9,0,13.2,1.2,18.8,3.6s10.4,5.8,14.4,10.2c4,4.4,7,9.8,9.2,16.2
				c2.2,6.4,3.2,13.5,3.2,21.4s-1.1,15.1-3.2,21.5c-2.2,6.4-5.2,11.8-9.2,16.3s-8.8,7.9-14.4,10.3c-5.6,2.4-11.9,3.6-18.8,3.6
				c-6.9,0-13.2-1.2-18.9-3.6s-10.5-5.9-14.5-10.3c-4-4.5-7.1-9.9-9.3-16.3c-2.2-6.4-3.3-13.5-3.3-21.5c0-7.9,1.1-15,3.3-21.4
				c2.2-6.4,5.3-11.8,9.3-16.2c4-4.4,8.8-7.8,14.5-10.2C135.9,296.9,142.2,295.7,149.2,295.7z M149.2,380.2c7.7,0,13.4-2.8,17.1-8.4
				c3.7-5.6,5.6-13.8,5.6-24.6c0-10.8-1.9-19-5.6-24.7c-3.7-5.7-9.4-8.5-17.1-8.5c-7.8,0-13.6,2.8-17.3,8.5s-5.6,13.9-5.6,24.6
				s1.9,18.9,5.6,24.5C135.6,377.4,141.3,380.2,149.2,380.2z"/>
			<path id="XMLID_275_" class="st8" d="M283.4,397.3c-3.1,0-5.1-1.5-6.1-4.4l-1.9-9.6c-2.1,2.3-4.2,4.4-6.5,6.3s-4.7,3.5-7.3,4.9
				c-2.6,1.4-5.4,2.4-8.4,3.2c-3,0.7-6.3,1.1-9.8,1.1c-5.4,0-10.4-1.1-15-3.4c-4.5-2.3-8.4-5.5-11.7-9.9c-3.3-4.3-5.8-9.6-7.6-16
				c-1.8-6.3-2.7-13.6-2.7-21.7c0-7.4,1-14.2,3-20.6c2-6.3,4.9-11.8,8.6-16.5c3.8-4.7,8.3-8.3,13.5-10.9s11.1-3.9,17.7-3.9
				c5.6,0,10.3,0.9,14.3,2.7c3.9,1.8,7.5,4.2,10.6,7.1v-55.9h24v147.5L283.4,397.3L283.4,397.3z M251.5,379.7c5,0,9.2-1,12.7-3.1
				s6.8-5,9.9-8.8v-44.7c-2.7-3.3-5.7-5.6-8.9-7c-3.2-1.4-6.7-2-10.3-2c-3.6,0-6.9,0.7-9.9,2c-2.9,1.4-5.4,3.4-7.5,6.2
				c-2,2.8-3.6,6.2-4.7,10.5c-1.1,4.2-1.7,9.2-1.7,15s0.5,10.8,1.4,14.8s2.3,7.3,4,9.9s3.9,4.4,6.4,5.5
				C245.6,379.2,248.4,379.7,251.5,379.7z"/>
			<path id="XMLID_272_" class="st8" d="M357.9,295.6c6.3,0,12.2,1,17.5,3s9.9,5,13.8,8.8c3.8,3.9,6.9,8.6,9,14.2
				c2.2,5.6,3.2,12.1,3.2,19.3c0,1.8-0.1,3.3-0.2,4.5c-0.2,1.2-0.5,2.1-0.9,2.8c-0.4,0.7-1,1.2-1.7,1.5s-1.6,0.4-2.7,0.4h-62.1
				c0.7,10.3,3.5,17.8,8.3,22.6c4.8,4.8,11.2,7.2,19.2,7.2c3.9,0,7.3-0.5,10.1-1.4c2.8-0.9,5.3-1.9,7.4-3s4-2.1,5.6-3
				s3.1-1.4,4.7-1.4c1,0,1.8,0.2,2.5,0.6s1.3,0.9,1.9,1.7l7,8.8c-2.7,3.1-5.7,5.7-9,7.9c-3.3,2.1-6.8,3.8-10.4,5.1
				c-3.6,1.3-7.3,2.2-11.1,2.7c-3.8,0.5-7.4,0.8-10.9,0.8c-7,0-13.5-1.2-19.5-3.5s-11.2-5.7-15.7-10.2c-4.4-4.5-7.9-10.1-10.5-16.8
				c-2.5-6.7-3.8-14.4-3.8-23.2c0-6.8,1.1-13.3,3.3-19.3c2.2-6,5.4-11.3,9.5-15.7c4.1-4.5,9.2-8,15.2-10.6
				C343.6,296.9,350.3,295.6,357.9,295.6z M358.3,312.9c-7,0-12.6,2-16.5,6c-4,4-6.5,9.6-7.6,16.9h45.4c0-3.1-0.4-6.1-1.3-8.8
				c-0.8-2.8-2.2-5.2-3.9-7.3c-1.8-2.1-4-3.7-6.7-4.9C365.1,313.5,361.9,312.9,358.3,312.9z"/>
		</g>
	</g>
	<g id="aster">
		<g id="XMLID_278_">
			<path id="XMLID_288_" class="st8" d="M905.8,397.9h-11.9c-2.5,0-4.5-0.3-5.9-1s-2.5-2.1-3.2-4.1l-2.4-7.1c-2.8,2.3-5.5,4.3-8.2,6
				s-5.5,3.2-8.3,4.3c-2.9,1.2-5.9,2-9.1,2.6c-3.2,0.6-6.8,0.9-10.7,0.9c-4.6,0-8.9-0.6-12.9-1.7c-3.9-1.1-7.3-2.8-10.1-5.1
				c-2.8-2.3-5-5.1-6.6-8.5s-2.4-7.3-2.4-11.8c0-3.8,1.1-7.5,3.3-11.2s5.8-7,10.9-10c5.1-3,11.8-5.4,20.3-7.4
				c8.4-2,18.9-2.9,31.4-2.9V335c0-6.7-1.6-11.7-4.7-14.9c-3.1-3.2-7.6-4.9-13.6-4.9c-4.3,0-7.9,0.5-10.7,1.4
				c-2.9,0.9-5.3,1.9-7.5,3.1c-2.1,1.1-4.1,2.2-5.8,3.1c-1.8,0.9-3.8,1.4-5.9,1.4c-1.8,0-3.3-0.4-4.6-1.3c-1.3-0.8-2.3-1.9-3.1-3.1
				l-4.8-7.7c12.7-10.5,27.9-15.8,45.8-15.8c6.4,0,12.2,1,17.2,2.9s9.3,4.6,12.8,8s6.2,7.5,8,12.2s2.7,9.9,2.7,15.6V397.9z
				 M854.3,382.9c2.7,0,5.2-0.2,7.5-0.7c2.3-0.4,4.5-1.1,6.5-2s4-2,5.9-3.3s3.8-2.9,5.7-4.6v-16.7c-7.7,0-14.2,0.4-19.4,1.3
				s-9.4,2-12.5,3.4s-5.4,3-6.7,4.8s-2,3.8-2,6c0,4.2,1.4,7.3,4.1,9.1C846.3,382,849.9,382.9,854.3,382.9z"/>
			<path id="XMLID_286_" class="st8" d="M1001,317.3c-0.8,1-1.6,1.8-2.5,2.2c-0.9,0.4-2,0.6-3.4,0.6s-3-0.3-4.6-1
				c-1.6-0.6-3.5-1.4-5.7-2.2s-4.6-1.5-7.4-2.2c-2.8-0.6-6-1-9.8-1c-5.8,0-10.4,1-13.8,3c-3.4,2-5,4.6-5,7.9c0,2.1,0.9,3.9,2.6,5.4
				c1.7,1.5,4,2.7,6.8,3.9c2.8,1.1,6,2.1,9.6,3s7.3,1.8,11,2.9c3.8,1,7.4,2.2,11,3.6c3.6,1.3,6.8,3,9.6,5.1c2.8,2,5.1,4.5,6.8,7.4
				s2.6,6.3,2.6,10.3c0,4.8-1.1,9.3-3.2,13.3c-2.2,4.1-5.3,7.6-9.5,10.5c-4.2,3-9.3,5.3-15.4,6.9c-6.1,1.7-13.1,2.5-21,2.5
				c-4.2,0-8.4-0.3-12.4-0.9s-7.9-1.5-11.6-2.6c-3.7-1.1-7.1-2.4-10.3-3.9s-5.9-3.1-8.3-4.9l6.8-9.2c0.9-1.1,1.9-2,3.1-2.5
				c1.2-0.6,2.7-0.9,4.6-0.9c1.8,0,3.6,0.4,5.2,1.3c1.6,0.8,3.5,1.8,5.7,2.7c2.2,1,4.7,1.9,7.6,2.7c2.9,0.8,6.6,1.3,11.1,1.3
				c3.5,0,6.5-0.3,9-1s4.6-1.6,6.2-2.7c1.6-1.1,2.8-2.4,3.6-3.9s1.1-3,1.1-4.5c0-2.3-0.9-4.3-2.6-5.8c-1.7-1.5-4-2.8-6.8-3.9
				s-6.1-2.1-9.7-3c-3.6-0.9-7.3-1.8-11.1-2.9c-3.8-1-7.5-2.3-11.1-3.7c-3.6-1.4-6.9-3.2-9.7-5.3c-2.8-2.1-5.1-4.8-6.8-7.9
				s-2.6-6.9-2.6-11.3c0-4.1,1-8,3-11.7s4.9-6.9,8.8-9.7c3.9-2.8,8.7-5,14.5-6.6c5.8-1.7,12.5-2.5,20.1-2.5c8.5,0,16.2,1.1,23.1,3.4
				c6.9,2.3,12.7,5.3,17.4,9L1001,317.3z"/>
			<path id="XMLID_284_" class="st8" d="M1069.9,399.5c-10.2,0-18-2.5-23.5-7.5s-8.3-11.9-8.3-20.8V314h-11.9c-1.5,0-2.9-0.4-4-1.3
				s-1.7-2.2-1.7-3.9V299l18.9-2.7l6.2-31c0.3-1.3,1-2.4,2.1-3.1s2.5-1.1,4.2-1.1h14.7l-0.2,35.3h31V314h-31v55.4
				c0,3.2,0.9,5.7,2.8,7.5c1.8,1.8,4.3,2.7,7.3,2.7c1.8,0,3.2-0.2,4.4-0.5c1.2-0.4,2.2-0.7,3.1-1.1s1.7-0.8,2.4-1.1
				c0.7-0.4,1.4-0.5,2.1-0.5c0.8,0,1.5,0.2,2.1,0.5c0.5,0.4,1.1,0.9,1.7,1.6l8.5,12c-4.1,3-8.9,5.2-14.2,6.8
				C1081.2,398.7,1075.6,399.5,1069.9,399.5z"/>
			<path id="XMLID_281_" class="st8" d="M1160.6,296.6c6.3,0,12.1,1,17.4,3s9.9,4.9,13.7,8.8c3.8,3.9,6.8,8.6,9,14.2
				c2.1,5.6,3.2,12,3.2,19.2c0,1.8-0.1,3.3-0.2,4.5c-0.2,1.2-0.5,2.1-0.9,2.8c-0.4,0.7-1,1.2-1.7,1.5s-1.6,0.4-2.7,0.4h-61.9
				c0.7,10.3,3.5,17.8,8.3,22.6c4.8,4.8,11.2,7.2,19.1,7.2c3.9,0,7.3-0.5,10.1-1.4c2.8-0.9,5.3-1.9,7.4-3s4-2.1,5.6-3
				s3.1-1.4,4.6-1.4c1,0,1.8,0.2,2.5,0.6s1.3,0.9,1.9,1.7l7,8.8c-2.7,3.1-5.7,5.7-9,7.8c-3.3,2.1-6.8,3.8-10.4,5.1
				c-3.6,1.3-7.3,2.2-11,2.7s-7.4,0.8-10.9,0.8c-7,0-13.4-1.2-19.4-3.5s-11.2-5.7-15.6-10.2s-7.9-10.1-10.4-16.7s-3.8-14.4-3.8-23.1
				c0-6.8,1.1-13.2,3.3-19.2c2.2-6,5.4-11.2,9.5-15.7c4.1-4.4,9.2-8,15.1-10.6C1146.4,297.9,1153.1,296.6,1160.6,296.6z
				 M1161.1,313.8c-7,0-12.5,2-16.5,5.9c-4,4-6.5,9.6-7.6,16.8h45.3c0-3.1-0.4-6-1.3-8.8c-0.8-2.8-2.1-5.2-3.9-7.2
				c-1.8-2.1-4-3.7-6.6-4.9C1167.8,314.4,1164.7,313.8,1161.1,313.8z"/>
			<path id="XMLID_279_" class="st8" d="M1215.4,399.5V298.1h14.3c2.5,0,4.2,0.5,5.2,1.4s1.6,2.5,2,4.7l1.5,12.2
				c3.6-6.3,7.9-11.2,12.7-14.8c4.9-3.6,10.3-5.4,16.4-5.4c5,0,9.1,1.2,12.4,3.5l-3.2,18.3c-0.2,1.2-0.6,2-1.3,2.5
				c-0.7,0.5-1.5,0.7-2.7,0.7c-1,0-2.3-0.2-4-0.7s-4-0.7-6.8-0.7c-5.1,0-9.4,1.4-13,4.2c-3.6,2.8-6.7,6.9-9.2,12.3v63.1
				L1215.4,399.5L1215.4,399.5z"/>
		</g>
	</g>
</g>
<path id="XMLID_176_" class="st8" d="M581.3,256.7c-0.3,0-0.6,0-0.8,0c-0.5,0-0.9,0-1.4,0c-18.4,0.2-36.1,3.5-52.5,9.6
	c-12.5,4.6-24.3,10.8-35,18.3c13-4.8,26.8-7.9,41.2-9.1c-23,6.6-43.9,18.3-61.2,33.9c-16.3,14.7-29.5,32.8-38.4,53.1
	c-6.3,14.3-10.5,29.7-12.2,45.9c1.6-9.5,4-18.8,7.3-27.6c8-21.9,20.8-41.6,37.2-57.6c-7.2,17-13.1,34.7-17.7,52.9
	c-7.3,28.9-11.2,59.2-11.3,90.3c0.3,2.2,0.7,4.3,1.1,6.4c0.1,0.1,0.1,0.3,0.2,0.4c5.2-25.5,13.6-49.7,24.8-72.4
	c22.9-46.3,57.4-85.9,99.7-115c0.7-0.5,1.5-1,2.2-1.5c1-0.7,2-1.3,3-2c0.8-0.5,1.6-1,2.3-1.5c1.8-1,3.9-1.6,6-1.9
	c0.1-0.1,0.2-0.1,0.3-0.2c0.3-0.2,0.5-0.4,0.8-0.6c0.2-0.1,0.3-0.2,0.4-0.4c1.4-1.2,2.7-2.5,3.9-3.9c1.1-1.3,2.1-2.6,2.9-4
	c0.7-1.1,1.3-2.3,1.8-3.4c0.2-0.3,0.3-0.7,0.5-1.1c0.2-0.7,0.4-1.4,0.4-2.1C586.9,259.9,584.5,257.2,581.3,256.7z M469,340
	c13.4-28.6,40.7-49.4,73.3-53.6C513.1,297.1,487.8,315.9,469,340z"/>
<path id="XMLID_159_" class="st8" d="M795,408.4c-1.7-16.2-5.9-31.6-12.2-45.9c-8.9-20.4-22.1-38.5-38.4-53.1
	c-17.3-15.6-38.2-27.3-61.2-33.9c14.4,1.2,28.2,4.3,41.2,9.1c-10.8-7.5-22.5-13.7-35-18.3c-16.4-6.1-34-9.4-52.5-9.6
	c-0.5,0-0.9,0-1.4,0c-0.3,0-0.6,0-0.8,0c-3.2,0.5-5.6,3.2-5.6,6.5c0,0.8,0.2,1.5,0.4,2.1c0.1,0.4,0.3,0.7,0.5,1.1
	c0.5,1.2,1.2,2.3,1.8,3.4c0.9,1.4,1.9,2.8,2.9,4c1.2,1.4,2.5,2.7,3.9,3.9c0.1,0.1,0.3,0.2,0.4,0.4c0.3,0.2,0.5,0.4,0.8,0.6
	c0.1,0.1,0.2,0.1,0.3,0.2c2.2,0.3,4.2,0.9,6,1.9c0.8,0.5,1.6,1,2.3,1.5c1,0.7,2,1.3,3,2c0.7,0.5,1.5,1,2.2,1.5
	c42.3,29.1,76.8,68.6,99.7,115c11.2,22.7,19.6,46.9,24.8,72.4c0,0.1,0,0.2,0.1,0.3c0.4,1.9,0.7,3.8,1.1,5.7c0.1-3,0.1-6,0.2-9
	c0-0.8,0-1.7,0-2.5c0-0.4,0-0.8,0-1.2c-0.1-31.2-4-61.4-11.3-90.3c-4.6-18.2-10.5-35.9-17.7-52.9c16.3,16,29.2,35.7,37.2,57.6
	C791,389.6,793.4,398.9,795,408.4z M634.5,269.7c0.4,0.1,0.8,0.1,1.3,0.1C635.4,269.8,634.9,269.8,634.5,269.7z M673.7,286.4
	c32.5,4.2,59.9,25,73.3,53.6C728.2,315.9,702.9,297.1,673.7,286.4z"/>
<g id="mustache_grid_3" class="st0">
	<g id="mustache_grid_3_left" class="st9">
		<circle id="XMLID_191_" class="st10" cx="626.4" cy="469.5" r="5.2"/>
		<circle id="XMLID_190_" class="st10" cx="606.3" cy="561.2" r="74.1"/>
		<circle id="XMLID_189_" class="st10" cx="641.3" cy="609.1" r="129.3"/>
		<circle id="XMLID_188_" class="st10" cx="607.7" cy="461.3" r="25.6"/>
		<circle id="XMLID_187_" class="st10" cx="624.6" cy="495.2" r="13.4"/>
		<circle id="XMLID_186_" class="st10" cx="626.6" cy="586.3" r="121.9"/>
		<circle id="XMLID_185_" class="st10" cx="599.2" cy="600.7" r="121.9"/>
		<circle id="XMLID_184_" class="st10" cx="805.8" cy="630" r="292.2"/>
		<circle id="XMLID_183_" class="st10" cx="745.7" cy="682" r="236"/>
		<circle id="XMLID_182_" class="st10" cx="622.7" cy="596.5" r="121.9"/>
		<circle id="XMLID_181_" class="st10" cx="621.7" cy="603.6" r="121.9"/>
	</g>
	<g id="mustache_grid_3_right" class="st9">
		<circle id="XMLID_180_" class="st10" cx="670" cy="469.5" r="5.2"/>
		<circle id="XMLID_179_" class="st10" cx="690.2" cy="561.2" r="74.1"/>
		<circle id="XMLID_177_" class="st10" cx="655.2" cy="609.1" r="129.3"/>
		<circle id="XMLID_175_" class="st10" cx="688.8" cy="461.3" r="25.6"/>
		<circle id="XMLID_174_" class="st10" cx="671.9" cy="495.2" r="13.4"/>
		<circle id="XMLID_173_" class="st10" cx="669.9" cy="586.3" r="121.9"/>
		<circle id="XMLID_172_" class="st10" cx="697.3" cy="600.7" r="121.9"/>
		<circle id="XMLID_171_" class="st10" cx="490.7" cy="630" r="292.2"/>
		<circle id="XMLID_170_" class="st10" cx="550.8" cy="682" r="236"/>
		<circle id="XMLID_169_" class="st10" cx="673.8" cy="596.5" r="121.9"/>
		<circle id="XMLID_168_" class="st10" cx="674.8" cy="603.6" r="121.9"/>
	</g>
</g>
<g id="Inside_Hut">
	<path id="XMLID_91_" class="st11" d="M608,35.7c1.8,0,3.6,0,5.4,0c3.2-1.1,5.6-4.2,5.6-7.8c0-3.3-2-6.2-4.8-7.5c-2.3,0-4.5,0-6.8,0
		c-0.3,0-0.6,0-1,0c-12,0-24,0.1-35.9,0.3l-27.7,16c21.1-0.7,42.4-1,63.7-1C607,35.7,607.5,35.7,608,35.7z"/>
	<path id="XMLID_90_" class="st11" d="M528.5,83.1c-1.7,0.1-3.3,0.1-5,0.2c-3.2,1.1-5.4,4.2-5.4,7.7c0,3.4,2.1,6.3,5,7.6
		c2.4-0.1,4.7-0.2,7.1-0.3c25.3-1,50.7-1.5,76.2-1.5c5,0,9.9,0,14.9,0.1c1.6,0,3.1,0,4.7,0c3.4-1,6-4.2,6-7.9c0-3.2-1.9-6-4.6-7.4
		c-2.4,0-4.8-0.1-7.2-0.1c-4.6,0-9.2-0.1-13.8-0.1C580.3,81.5,554.4,82.1,528.5,83.1z"/>
	<path id="XMLID_88_" class="st11" d="M606.4,142.6c-96.2,0-190.7,7.1-283.1,20.8c92.4,13.7,186.9,20.8,283.1,20.8
		s190.7-7.1,283.1-20.8C797.2,149.7,702.6,142.6,606.4,142.6z"/>
	<path id="XMLID_87_" class="st11" d="M452.9,133.5c2.8-1.3,4.7-4.1,4.7-7.4c0-3.6-2.3-6.7-5.6-7.8c-2.2,0.2-4.4,0.3-6.6,0.5
		c-18.1,1.5-36.1,3.3-54,5.3L358,143.4c29.5-3.8,59.2-7,89.1-9.5C449,133.8,451,133.6,452.9,133.5z"/>
	<path id="XMLID_86_" class="st11" d="M737.5,116.5c-3.7,0.8-6.4,4.1-6.4,8c0,3,1.6,5.7,4.1,7.1c2.4,0.2,4.9,0.3,7.3,0.5
		c38.1,2.7,75.8,6.5,113.2,11.4l-33.5-19.4c-26.5-3-53.2-5.4-80-7.3C740.6,116.8,739.1,116.7,737.5,116.5z"/>
	<path id="XMLID_85_" class="st11" d="M684.1,83.1c-3.5,0.9-6.1,4.1-6.1,8c0,3.1,1.8,5.9,4.3,7.3c2.4,0.1,4.8,0.2,7.2,0.3
		c33.7,1.4,67.2,3.7,100.4,6.9l-31.2-18c-23.1-1.8-46.4-3.2-69.7-4.2C687.4,83.2,685.8,83.2,684.1,83.1z"/>
	<path id="XMLID_21_" class="st11" d="M660.3,51.7c2.4,0.1,4.7,0.1,7.1,0.2c10.7,0.3,21.3,0.8,31.9,1.3l-28.5-16.4
		c-1.4,0-2.7-0.1-4.1-0.1c-1.7-0.1-3.3-0.1-5-0.1c-3.5,1-6,4.2-6,7.9C655.8,47.6,657.6,50.4,660.3,51.7z"/>
	<path id="XMLID_20_" class="st11" d="M580.3,66.4c3.3-1.1,5.8-4.2,5.8-7.9c0-3.3-1.9-6.1-4.7-7.5c-2.4,0-4.8,0.1-7.2,0.1
		c-20,0.3-39.9,1-59.8,1.9l-29.3,17c30-1.9,60.2-3.1,90.6-3.5C577.2,66.5,578.8,66.5,580.3,66.4z"/>
</g>
<g id="Grid_Hut" class="st0">
	<circle id="XMLID_115_" class="st12" cx="647" cy="1874.9" r="1500"/>
	<circle id="XMLID_114_" class="st12" cx="647" cy="1863" r="1500"/>
	<circle id="XMLID_113_" class="st12" cx="647" cy="1851" r="1500"/>
	<circle id="XMLID_107_" class="st12" cx="647" cy="1839" r="1500"/>
	<circle id="XMLID_106_" class="st12" cx="647" cy="1827" r="1500"/>
	<circle id="XMLID_105_" class="st12" cx="647" cy="1815" r="1500"/>
	<circle id="XMLID_104_" class="st12" cx="647" cy="1803" r="1500"/>
	<circle id="XMLID_103_" class="st12" cx="647" cy="1791" r="1500"/>
	<circle id="XMLID_102_" class="st12" cx="647" cy="1779" r="1500"/>
	<circle id="XMLID_101_" class="st12" cx="647" cy="-1092.4" r="1500"/>
	<circle id="XMLID_100_" class="st12" cx="523.7" cy="361.9" r="6.5"/>
	<circle id="XMLID_99_" class="st12" cx="584.1" cy="334.4" r="6.5"/>
	<circle id="XMLID_98_" class="st12" cx="660.6" cy="332.8" r="6.5"/>
	<circle id="XMLID_97_" class="st12" cx="751.3" cy="360.7" r="6.5"/>
	<circle id="XMLID_96_" class="st12" cx="709.6" cy="334.4" r="6.5"/>
	<circle id="XMLID_95_" class="st12" cx="692.2" cy="297.8" r="6.5"/>
	<circle id="XMLID_94_" class="st12" cx="624.6" cy="308.9" r="6.5"/>
	<circle id="XMLID_18_" class="st12" cx="650.4" cy="284.9" r="6.5"/>
	<line id="XMLID_84_" class="st12" x1="-390.3" y1="861.8" x2="1563.5" y2="-266.2"/>
	<line id="XMLID_83_" class="st12" x1="1615.7" y1="821.9" x2="-338.1" y2="-306.1"/>
</g>
<g id="Eyebrows">
	<g id="Eyebrows_1_">
		<g id="Left_1_">
			<path id="XMLID_78_" class="st10" d="M560,115.5c-1.8,0.2-3.6,0.4-5.4,0.8c-0.2,0-0.5,0.1-0.7,0.1s-0.4,0.1-0.6,0.1
				c-2,0.4-3.9,1-5.8,1.6c0.1,1,0.1,2,0.1,3c0,0.4,0,0.8,0,1.1c-0.1,2.7-0.3,5.4-0.8,8c-0.1,0.5-0.2,1.1-0.3,1.6
				c-0.9,4.4-2.4,8.7-4.4,12.6c-0.4,0.7-0.7,1.4-1.1,2.1c-2.3,4-5.1,7.8-8.3,11.1c-1.1,1.1-2.3,2.2-3.5,3.2
				c-0.2,0.2-0.5,0.4-0.7,0.6c-1.1,0.9-2.2,1.7-3.3,2.5c0.6-0.3,1.2-0.5,1.8-0.8c1-0.5,1.9-1,2.9-1.5c0.6-0.3,1.2-0.7,1.9-1.1
				c2.1-1.2,4-2.5,5.9-4c3.3-2.4,6.3-5.2,9-8.2c1.1-1.2,2.1-2.4,3.1-3.7c1.2-1.5,2.3-3.1,3.4-4.7c2.8-4.2,5-8.8,6.8-13.6
				c0.2-0.7,0.5-1.3,0.7-2c0.9-2.8,1.6-5.6,2.1-8.5C561.9,115.7,561,115.6,560,115.5z"/>
			<path id="XMLID_77_" class="st8" d="M572.3,131.6c0-0.9-0.1-1.9-0.2-2.8c0-0.1,0-0.2,0-0.3c0-1.2-0.2-2.3-0.5-3.4
				c-1.1-3.9-3.9-7.1-7.6-8.6c-0.4-0.2-0.8-0.3-1.3-0.5c-0.5,2.9-1.2,5.8-2.1,8.5c-0.2,0.7-0.4,1.3-0.7,2c-1.7,4.8-4,9.4-6.8,13.6
				c-1.1,1.6-2.2,3.2-3.4,4.7c-1,1.3-2.1,2.5-3.1,3.7c-2.7,3-5.8,5.7-9,8.2c-1.9,1.4-3.9,2.7-5.9,4c-0.6,0.4-1.2,0.7-1.9,1.1
				c-0.9,0.5-1.9,1-2.9,1.5c-0.6,0.3-1.2,0.6-1.8,0.8c1.1-0.8,2.2-1.6,3.3-2.5c0.2-0.2,0.5-0.4,0.7-0.6c1.2-1,2.4-2.1,3.5-3.2
				c3.2-3.3,6-7,8.3-11.1c0.4-0.7,0.8-1.4,1.1-2.1c2-3.9,3.5-8.2,4.4-12.6c0.1-0.5,0.2-1.1,0.3-1.6c0.5-2.6,0.7-5.3,0.8-8
				c0-0.4,0-0.8,0-1.1c0-1,0-2-0.1-3c-14.5,5.1-26.1,16.3-31.6,30.7c4.8-2.1,10.1-3.3,15.7-3.3c0.5,0,1,0,1.6,0
				c-6.9,1.4-13.2,4.2-18.8,8c-6.2,4.2-11.4,9.7-15.2,16.1c-0.3,0.6-0.7,1.1-1,1.7c-0.1,0.1-0.1,0.2-0.2,0.3
				c0.1-0.1,0.2-0.2,0.3-0.2c0.7-0.6,1.4-1.2,2.2-1.8c3.6-2.8,7.8-5.1,12.3-6.5c2.6-0.8,5.4-1.4,8.2-1.7c-2.9,1.2-5.7,2.5-8.3,4
				c-2,1.1-4,2.3-5.9,3.6c-1.8,1.2-3.5,2.5-5.1,3.8c-0.4,0.3-0.8,0.6-1.2,1c-1.9,1.6-3.7,3.2-5.4,5c-0.2,0.2-0.3,0.3-0.5,0.5
				c-0.6,0.6-1.2,1.3-1.8,1.9h-0.1v0.1c-1.8,2-3.6,4.2-5.2,6.4c-4.9,6.8-8.8,14.4-11.4,22.6c-1.2,3.7-2.1,7.5-2.7,11.4
				c1.3-3.4,2.9-6.6,4.8-9.7c2.1-3.5,4.5-6.7,7.2-9.7c1.9-2.2,4-4.2,6.2-6.1c0.7-0.6,1.4-1.2,2.1-1.8c5.3-4.2,11.3-7.6,17.8-9.9
				c1.1-0.4,2.3-0.8,3.5-1.2l0,0l0,0c1-0.4,2.5-0.7,3.8-1c1.6-0.3,3.3-0.6,4.8-1c9.2-2.2,17.6-6.3,24.8-11.9
				c4.4-3.4,8.3-7.3,11.7-11.7c0.4-0.5,0.8-1,1.2-1.6c1.6-2.2,3.1-4.6,4.4-7c0.7-1.2,1.3-2.4,1.9-3.7c0,0.4,0,0.7,0,1.1
				c0,1.1-0.1,2.3-0.2,3.4c-0.2,2.4-0.6,4.7-1.3,7c-0.1,0.4-0.2,0.8-0.3,1.1c0.2-0.4,0.4-0.7,0.6-1.1c1-2,1.9-4,2.7-6.1
				c2-5.6,3.1-11.6,3.1-17.9C572.3,132.7,572.3,132.2,572.3,131.6z"/>
		</g>
		<g id="Right_2_">
			<path id="XMLID_74_" class="st10" d="M655.2,115.5c1.8,0.2,3.6,0.4,5.4,0.8c0.2,0,0.5,0.1,0.7,0.1s0.4,0.1,0.6,0.1
				c2,0.4,3.9,1,5.8,1.6c-0.1,1-0.1,2-0.1,3c0,0.4,0,0.8,0,1.1c0.1,2.7,0.3,5.4,0.8,8c0.1,0.5,0.2,1.1,0.3,1.6
				c0.9,4.4,2.4,8.7,4.4,12.6c0.4,0.7,0.7,1.4,1.1,2.1c2.3,4,5.1,7.8,8.3,11.1c1.1,1.1,2.3,2.2,3.5,3.2c0.2,0.2,0.5,0.4,0.7,0.6
				c1.1,0.9,2.2,1.7,3.3,2.5c-0.6-0.3-1.2-0.5-1.8-0.8c-1-0.5-1.9-1-2.9-1.5c-0.6-0.3-1.2-0.7-1.9-1.1c-2.1-1.2-4-2.5-5.9-4
				c-3.3-2.4-6.3-5.2-9-8.2c-1.1-1.2-2.1-2.4-3.1-3.7c-1.2-1.5-2.3-3.1-3.4-4.7c-2.8-4.2-5-8.8-6.8-13.6c-0.2-0.7-0.5-1.3-0.7-2
				c-0.9-2.8-1.6-5.6-2.1-8.5C653.3,115.7,654.3,115.6,655.2,115.5z"/>
			<path id="XMLID_55_" class="st8" d="M642.9,131.6c0-0.9,0.1-1.9,0.2-2.8c0-0.1,0-0.2,0-0.3c0-1.2,0.2-2.3,0.5-3.4
				c1.1-3.9,3.9-7.1,7.6-8.6c0.4-0.2,0.8-0.3,1.3-0.5c0.5,2.9,1.2,5.8,2.1,8.5c0.2,0.7,0.4,1.3,0.7,2c1.7,4.8,4,9.4,6.8,13.6
				c1.1,1.6,2.2,3.2,3.4,4.7c1,1.3,2.1,2.5,3.1,3.7c2.7,3,5.8,5.7,9,8.2c1.9,1.4,3.9,2.7,5.9,4c0.6,0.4,1.2,0.7,1.9,1.1
				c0.9,0.5,1.9,1,2.9,1.5c0.6,0.3,1.2,0.6,1.8,0.8c-1.1-0.8-2.2-1.6-3.3-2.5c-0.2-0.2-0.5-0.4-0.7-0.6c-1.2-1-2.4-2.1-3.5-3.2
				c-3.2-3.3-6-7-8.3-11.1c-0.4-0.7-0.8-1.4-1.1-2.1c-2-3.9-3.5-8.2-4.4-12.6c-0.1-0.5-0.2-1.1-0.3-1.6c-0.5-2.6-0.7-5.3-0.8-8
				c0-0.4,0-0.8,0-1.1c0-1,0-2,0.1-3c14.5,5.1,26.1,16.3,31.6,30.7c-4.8-2.1-10.1-3.3-15.7-3.3c-0.5,0-1,0-1.6,0
				c6.9,1.4,13.2,4.2,18.8,8c6.2,4.2,11.4,9.7,15.2,16.1c0.3,0.6,0.7,1.1,1,1.7c0.1,0.1,0.1,0.2,0.2,0.3c-0.1-0.1-0.2-0.2-0.3-0.2
				c-0.7-0.6-1.4-1.2-2.2-1.8c-3.6-2.8-7.8-5.1-12.3-6.5c-2.6-0.8-5.4-1.4-8.2-1.7c2.9,1.2,5.7,2.5,8.3,4c2,1.1,4,2.3,5.9,3.6
				c1.8,1.2,3.5,2.5,5.1,3.8c0.4,0.3,0.8,0.6,1.2,1c1.9,1.6,3.7,3.2,5.4,5c0.2,0.2,0.3,0.3,0.5,0.5c0.6,0.6,1.2,1.3,1.8,1.9h0.1v0.1
				c1.8,2,3.6,4.2,5.2,6.4c4.9,6.8,8.8,14.4,11.4,22.6c1.2,3.7,2.1,7.5,2.7,11.4c-1.3-3.4-2.9-6.6-4.8-9.7c-2.1-3.5-4.5-6.7-7.2-9.7
				c-1.9-2.2-4-4.2-6.2-6.1c-0.7-0.6-1.4-1.2-2.1-1.8c-5.3-4.2-11.3-7.6-17.8-9.9c-1.1-0.4-1.9-0.8-3.1-1.2h0.4l0,0
				c-2-0.4-2.9-0.7-4.2-1c-1.6-0.3-3.4-0.6-5-1c-9.2-2.2-17.7-6.3-24.9-11.9c-4.4-3.4-8.3-7.3-11.7-11.7c-0.4-0.5-0.8-1-1.2-1.6
				c-1.6-2.2-3.1-4.6-4.5-7c-0.7-1.2-1.3-2.4-1.9-3.7c0,0.4,0,0.7,0,1.1c0,1.1,0.1,2.3,0.2,3.4c0.2,2.4,0.6,4.7,1.3,7
				c0.1,0.4,0.2,0.8,0.3,1.1c-0.2-0.4-0.4-0.7-0.6-1.1c-1-2-1.9-4-2.7-6.1c-2-5.6-3.1-11.6-3.1-17.9
				C642.9,132.7,642.9,132.2,642.9,131.6z"/>
		</g>
	</g>
	<g id="Grid_1_" class="st0">
		<g id="Eyebrow_grid" class="st9">
			<circle id="XMLID_158_" class="st10" cx="609.9" cy="363.8" r="10.2"/>
			<circle id="XMLID_152_" class="st10" cx="597.8" cy="417.4" r="41"/>
			<circle id="XMLID_151_" class="st10" cx="614.2" cy="394.4" r="41"/>
			<circle id="XMLID_150_" class="st10" cx="588.3" cy="407.9" r="30.7"/>
			<circle id="XMLID_149_" class="st10" cx="603.3" cy="446.6" r="61.5"/>
			<circle id="XMLID_148_" class="st10" cx="590.2" cy="456" r="51.2"/>
			<circle id="XMLID_147_" class="st10" cx="577.9" cy="389.2" r="51.2"/>
			<circle id="XMLID_146_" class="st10" cx="562.3" cy="345" r="51.2"/>
			<circle id="XMLID_145_" class="st10" cx="559.9" cy="358.1" r="41"/>
			<circle id="XMLID_144_" class="st10" cx="570.1" cy="355.6" r="51.2"/>
			<circle id="XMLID_143_" class="st10" cx="582.7" cy="420.4" r="30.7"/>
			<circle id="XMLID_142_" class="st10" cx="585.8" cy="378.2" r="30.7"/>
			<circle id="XMLID_141_" class="st10" cx="579.3" cy="367.5" r="41"/>
		</g>
		<g id="Eyebrow_grid_1_" class="st9">
			<circle id="XMLID_64_" class="st10" cx="686" cy="363.8" r="10.2"/>
			<circle id="XMLID_63_" class="st10" cx="698" cy="417.4" r="41"/>
			<circle id="XMLID_62_" class="st10" cx="681.6" cy="394.4" r="41"/>
			<circle id="XMLID_61_" class="st10" cx="707.6" cy="407.9" r="30.7"/>
			<circle id="XMLID_60_" class="st10" cx="692.6" cy="446.6" r="61.5"/>
			<circle id="XMLID_59_" class="st10" cx="705.7" cy="456" r="51.2"/>
			<circle id="XMLID_58_" class="st10" cx="718" cy="389.2" r="51.2"/>
			<circle id="XMLID_57_" class="st10" cx="733.5" cy="345" r="51.2"/>
			<circle id="XMLID_50_" class="st10" cx="736" cy="358.1" r="41"/>
			<circle id="XMLID_46_" class="st10" cx="725.8" cy="355.6" r="51.2"/>
			<circle id="XMLID_45_" class="st10" cx="713.2" cy="420.4" r="30.7"/>
			<circle id="XMLID_44_" class="st10" cx="710.1" cy="378.2" r="30.7"/>
			<circle id="XMLID_43_" class="st10" cx="716.6" cy="367.5" r="41"/>
		</g>
	</g>
</g>
<g id="Outside_Hut">
	<path id="XMLID_92_" class="st13" d="M855.7,143.5c-37.4-4.9-75.2-8.7-113.2-11.4c-2.4-0.2-4.9-0.3-7.3-0.5
		c-2.4-1.4-4.1-4.1-4.1-7.1c0-3.9,2.7-7.2,6.4-8c1.6,0.1,3.2,0.2,4.7,0.3c26.8,1.9,53.5,4.3,80,7.3l-32.3-18.6
		c-33.2-3.2-66.7-5.5-100.4-6.9c-2.4-0.1-4.8-0.2-7.2-0.3c-2.6-1.4-4.3-4.1-4.3-7.3c0-3.8,2.6-7,6.1-8c1.6,0.1,3.3,0.1,4.9,0.2
		c23.4,1,46.6,2.4,69.7,4.2L728.5,70l-29.3-16.9c-10.6-0.5-21.3-0.9-31.9-1.3c-2.4-0.1-4.7-0.1-7.1-0.2c-2.7-1.4-4.5-4.1-4.5-7.3
		c0-3.8,2.5-6.9,6-7.9c1.7,0,3.3,0.1,5,0.1c1.4,0,2.7,0.1,4.1,0.1l-27.7-16L606.8-0.2l-36.3,20.9c12-0.2,23.9-0.3,35.9-0.3
		c0.3,0,0.6,0,1,0c2.3,0,4.5,0,6.8,0c2.9,1.3,4.8,4.2,4.8,7.5c0,3.6-2.3,6.7-5.6,7.8c-1.8,0-3.6,0-5.4,0c-0.5,0-1.1,0-1.6,0
		c-21.3,0-42.5,0.4-63.7,1l-28.5,16.4c19.9-0.9,39.8-1.6,59.8-1.9c2.4,0,4.8-0.1,7.2-0.1c2.8,1.3,4.7,4.2,4.7,7.5
		c0,3.7-2.4,6.8-5.8,7.9c-1.6,0-3.1,0-4.7,0.1c-30.4,0.5-60.6,1.7-90.6,3.5l-30.2,17.4l-31.1,18l-32.3,18.6c17.9-2,35.9-3.8,54-5.3
		c2.2-0.2,4.4-0.4,6.6-0.5c3.2,1.1,5.6,4.2,5.6,7.8c0,3.3-1.9,6.1-4.7,7.4c-2,0.2-3.9,0.3-5.9,0.5c-29.9,2.5-59.6,5.6-89.1,9.5
		l-34.7,20l0,0c92.4-13.7,186.9-20.8,283.1-20.8s190.7,7.1,283.1,20.8c0.2,0,0.4-0.1,0.5-0.1L855.7,143.5z M518.1,91.1
		c0-3.6,2.3-6.6,5.4-7.7c1.7-0.1,3.3-0.1,5-0.2c25.8-1,51.8-1.6,77.9-1.6c4.6,0,9.2,0,13.8,0.1c2.4,0,4.8,0,7.2,0.1
		c2.7,1.4,4.6,4.1,4.6,7.4c0,3.8-2.5,6.9-6,7.9c-1.6,0-3.1,0-4.7,0c-4.9,0-9.9-0.1-14.9-0.1c-25.5,0-50.9,0.5-76.2,1.5
		c-2.4,0.1-4.7,0.2-7.1,0.3C520.2,97.4,518.1,94.4,518.1,91.1z"/>
</g>
<g id="Eyes">
	<g id="Eyes_1_">
		<path id="XMLID_49_" class="st14" d="M642.7,227.3c2.6-17.9,17.9-31.6,36.5-31.6c7.8,0,15,2.4,21,6.5c-3.4-0.7-6.9-1-10.5-1
			C669.9,201.2,652.5,211.7,642.7,227.3z"/>
		<path id="XMLID_33_" class="st14" d="M572.4,227.3c-2.6-17.9-17.9-31.6-36.5-31.6c-7.8,0-15,2.4-21,6.5c3.4-0.7,6.9-1,10.5-1
			C545.2,201.2,562.6,211.7,572.4,227.3z"/>
	</g>
	<g id="Grid_2_" class="st0">
		<circle id="XMLID_14_" class="st12" cx="712.4" cy="464.4" r="43.5"/>
		<circle id="XMLID_1_" class="st12" cx="704.2" cy="445.5" r="29"/>
		<circle id="XMLID_16_" class="st12" cx="583.4" cy="464.4" r="43.5"/>
		<circle id="XMLID_15_" class="st12" cx="591.6" cy="445.5" r="29"/>
	</g>
</g>
<g id="Grid" class="st0">
</g>
</svg>
