<?xml version="1.0" encoding="utf-8"?>
<!-- Generator: Adobe Illustrator 16.0.0, SVG Export Plug-In . SVG Version: 6.00 Build 0)  -->
<!DOCTYPE svg PUBLIC "-//W3C//DTD SVG 1.1//EN" "http://www.w3.org/Graphics/SVG/1.1/DTD/svg11.dtd">
<svg version="1.1" id="Layer_1" xmlns="http://www.w3.org/2000/svg" xmlns:xlink="http://www.w3.org/1999/xlink" x="0px" y="0px"
	 width="430.988px" height="165.381px" viewBox="0 0 430.988 165.381" enable-background="new 0 0 430.988 165.381"
	 xml:space="preserve">
<g>
	<path fill="#232323" d="M56.56,14.418V8.45h1.042v5.968H56.56z M56.56,50.641V20.268h1.042v30.373H56.56z"/>
	<path fill="#232323" d="M63.851,20.268v7.505h0.104c0.243-1.182,0.633-2.265,1.172-3.25c0.538-0.984,1.215-1.852,2.031-2.6
		c0.815-0.748,1.762-1.33,2.839-1.743c1.076-0.414,2.273-0.621,3.594-0.621c1.388,0,2.665,0.236,3.828,0.709
		c1.163,0.474,2.169,1.173,3.021,2.099c0.85,0.926,1.51,2.067,1.979,3.427s0.703,2.925,0.703,4.698v20.149h-1.042V30.668
		c0-1.772-0.227-3.279-0.677-4.521c-0.452-1.241-1.068-2.265-1.849-3.072s-1.685-1.398-2.708-1.773
		c-1.025-0.374-2.109-0.561-3.255-0.561c-1.598,0-3.004,0.345-4.219,1.033c-1.216,0.69-2.231,1.616-3.047,2.777
		c-0.816,1.163-1.433,2.512-1.849,4.048s-0.625,3.152-0.625,4.846v17.195H62.81V20.268H63.851z"/>
	<path fill="#232323" d="M91.195,44.731c0,1.144,0.112,2.029,0.339,2.659c0.225,0.631,0.512,1.104,0.859,1.418
		c0.347,0.316,0.729,0.503,1.146,0.562c0.417,0.06,0.833,0.089,1.25,0.089c0.521,0,0.99-0.01,1.406-0.029
		c0.417-0.02,0.711-0.068,0.886-0.148v1.182c-0.312,0.04-0.617,0.08-0.912,0.118c-0.295,0.04-0.842,0.06-1.641,0.06
		c-1.216,0-2.249-0.403-3.099-1.211c-0.851-0.808-1.276-2.295-1.276-4.462V21.45h-4.896v-1.183h4.896v-9.572h1.042v9.572h6.042
		v1.183h-6.042V44.731z"/>
	<path fill="#232323" d="M100.492,41.393c0.399,1.754,1.016,3.28,1.849,4.58s1.909,2.324,3.229,3.072
		c1.319,0.749,2.934,1.123,4.844,1.123c2.813,0,5.147-0.837,7.005-2.512c1.857-1.674,3.012-4.185,3.464-7.534h1.042
		c-0.382,3.546-1.615,6.294-3.698,8.243c-2.083,1.95-4.653,2.926-7.708,2.926c-2.083,0.038-3.863-0.336-5.339-1.123
		c-1.476-0.788-2.682-1.9-3.62-3.339c-0.938-1.438-1.632-3.132-2.083-5.082c-0.452-1.949-0.677-4.047-0.677-6.293
		c0-2.521,0.33-4.766,0.989-6.736c0.659-1.969,1.528-3.634,2.604-4.993c1.076-1.358,2.326-2.393,3.75-3.102
		c1.423-0.71,2.881-1.064,4.375-1.064c2.083,0,3.88,0.454,5.391,1.359c1.51,0.907,2.743,2.108,3.698,3.604
		c0.955,1.498,1.649,3.211,2.083,5.141c0.434,1.931,0.616,3.94,0.547,6.027H99.841C99.875,37.739,100.092,39.641,100.492,41.393z
		 M120.518,29.221c-0.452-1.675-1.12-3.142-2.005-4.402c-0.885-1.261-1.988-2.255-3.307-2.984c-1.32-0.729-2.848-1.093-4.583-1.093
		c-1.458,0-2.821,0.315-4.088,0.945c-1.268,0.63-2.379,1.546-3.333,2.747c-0.956,1.202-1.728,2.65-2.318,4.344
		c-0.591,1.694-0.938,3.604-1.042,5.731h21.354C121.195,32.657,120.969,30.896,120.518,29.221z"/>
	<path fill="#232323" d="M125.883,50.641V20.268h1.042v7.505h0.104c0.243-1.142,0.625-2.216,1.146-3.221
		c0.521-1.004,1.215-1.881,2.083-2.629c0.867-0.748,1.901-1.339,3.099-1.773c1.198-0.433,2.595-0.629,4.193-0.591v1.183
		c-1.841-0.118-3.429,0.168-4.766,0.856c-1.337,0.689-2.44,1.635-3.307,2.836c-0.869,1.202-1.511,2.591-1.927,4.166
		c-0.417,1.576-0.625,3.191-0.625,4.846v17.195H125.883z"/>
	<path fill="#232323" d="M139.58,25.675c0.451-1.241,1.102-2.313,1.953-3.221c0.851-0.905,1.892-1.614,3.125-2.127
		c1.232-0.512,2.682-0.769,4.349-0.769c1.18,0,2.3,0.139,3.359,0.414c1.059,0.276,1.987,0.759,2.787,1.447
		c0.798,0.69,1.44,1.587,1.927,2.689c0.486,1.103,0.747,2.481,0.781,4.136v19.323c0,0.591,0.104,1.024,0.312,1.3
		c0.208,0.275,0.486,0.463,0.833,0.562c0.347,0.099,0.72,0.138,1.12,0.118c0.399-0.02,0.772-0.05,1.12-0.089v1.182h-1.562
		c-0.764,0-1.433-0.207-2.005-0.62c-0.573-0.414-0.859-1.191-0.859-2.334v-3.96h-0.104c-0.278,0.985-0.721,1.931-1.328,2.837
		c-0.608,0.906-1.372,1.714-2.292,2.423c-0.92,0.709-1.971,1.271-3.151,1.684c-1.181,0.414-2.466,0.621-3.854,0.621
		c-2.708,0-4.878-0.68-6.51-2.039c-1.632-1.359-2.448-3.397-2.448-6.116c0-1.891,0.269-3.406,0.807-4.55
		c0.538-1.142,1.241-2.038,2.109-2.688c0.868-0.65,1.857-1.103,2.969-1.359c1.111-0.256,2.222-0.423,3.333-0.502
		c1.84-0.118,3.419-0.227,4.74-0.325c1.319-0.098,2.404-0.295,3.255-0.591c0.851-0.295,1.476-0.748,1.875-1.359
		c0.399-0.61,0.599-1.486,0.599-2.629c0-0.906-0.07-1.852-0.208-2.837c-0.139-0.983-0.478-1.891-1.016-2.718
		c-0.539-0.827-1.328-1.507-2.37-2.039c-1.042-0.531-2.448-0.797-4.219-0.797c-2.812,0-5,0.778-6.562,2.334
		c-1.562,1.557-2.431,3.752-2.604,6.588h-1.042C138.868,28.245,139.128,26.916,139.58,25.675z M156.716,32.795
		c-0.348,0.553-0.886,0.976-1.615,1.271c-0.729,0.296-1.562,0.522-2.5,0.68c-0.938,0.158-1.953,0.257-3.047,0.296
		s-2.162,0.099-3.203,0.177c-1.042,0.08-2.058,0.228-3.047,0.443c-0.99,0.217-1.867,0.611-2.63,1.182
		c-0.764,0.571-1.372,1.359-1.823,2.364c-0.452,1.004-0.677,2.314-0.677,3.929c0,0.867,0.13,1.725,0.391,2.571
		s0.703,1.595,1.328,2.245c0.625,0.649,1.432,1.182,2.422,1.596c0.99,0.413,2.213,0.62,3.672,0.62c1.736,0,3.281-0.334,4.636-1.005
		c1.354-0.669,2.491-1.545,3.411-2.629c0.92-1.083,1.615-2.334,2.083-3.753c0.469-1.418,0.703-2.875,0.703-4.372v-5.614H156.716z"/>
	<path fill="#232323" d="M183.851,44.879c-0.591,1.359-1.363,2.512-2.318,3.457c-0.955,0.945-2.066,1.675-3.333,2.187
		c-1.268,0.512-2.666,0.769-4.193,0.769c-1.91,0-3.603-0.405-5.078-1.212c-1.477-0.807-2.717-1.9-3.724-3.279
		c-1.007-1.379-1.771-2.984-2.292-4.816c-0.521-1.831-0.781-3.791-0.781-5.879c0-2.206,0.251-4.304,0.755-6.293
		c0.503-1.989,1.267-3.742,2.292-5.26c1.023-1.516,2.326-2.727,3.906-3.634c1.58-0.905,3.428-1.359,5.547-1.359
		c1.25,0,2.448,0.218,3.594,0.65c1.146,0.434,2.169,1.063,3.073,1.891c0.903,0.827,1.658,1.861,2.266,3.103
		c0.607,1.241,0.998,2.669,1.172,4.284h-1.042c-0.208-1.497-0.591-2.787-1.146-3.87c-0.556-1.083-1.233-1.989-2.031-2.719
		c-0.799-0.729-1.702-1.271-2.708-1.625c-1.008-0.354-2.066-0.531-3.177-0.531c-2.119,0-3.916,0.463-5.391,1.389
		c-1.477,0.926-2.656,2.127-3.542,3.604c-0.885,1.477-1.528,3.132-1.927,4.963c-0.4,1.832-0.599,3.635-0.599,5.407
		c0,1.852,0.234,3.625,0.703,5.318c0.469,1.694,1.154,3.19,2.057,4.49c0.903,1.3,2.031,2.334,3.386,3.103
		c1.354,0.769,2.917,1.152,4.688,1.152c1.319,0,2.552-0.227,3.698-0.68c1.146-0.452,2.162-1.112,3.047-1.979
		c0.886-0.866,1.606-1.9,2.162-3.103c0.555-1.201,0.885-2.57,0.99-4.106h1.042C184.805,41.994,184.44,43.521,183.851,44.879z"/>
	<path fill="#232323" d="M191.767,44.731c0,1.144,0.112,2.029,0.339,2.659c0.225,0.631,0.512,1.104,0.859,1.418
		c0.347,0.316,0.729,0.503,1.146,0.562c0.417,0.06,0.833,0.089,1.25,0.089c0.521,0,0.99-0.01,1.406-0.029
		c0.417-0.02,0.711-0.068,0.886-0.148v1.182c-0.312,0.04-0.617,0.08-0.912,0.118c-0.295,0.04-0.842,0.06-1.641,0.06
		c-1.216,0-2.249-0.403-3.099-1.211c-0.851-0.808-1.276-2.295-1.276-4.462V21.45h-4.896v-1.183h4.896v-9.572h1.042v9.572h6.042
		v1.183h-6.042V44.731z"/>
	<path fill="#232323" d="M200.934,14.418V8.45h1.042v5.968H200.934z M200.934,50.641V20.268h1.042v30.373H200.934z"/>
	<path fill="#232323" d="M226.141,20.268l-10.104,30.373h-1.303l-10.989-30.373h1.198l10.364,29.191h0.105l9.582-29.191H226.141z"/>
	<path fill="#232323" d="M227.991,41.393c0.398,1.754,1.016,3.28,1.849,4.58s1.909,2.324,3.229,3.072
		c1.319,0.749,2.934,1.123,4.844,1.123c2.812,0,5.147-0.837,7.005-2.512c1.857-1.674,3.012-4.185,3.464-7.534h1.041
		c-0.382,3.546-1.614,6.294-3.697,8.243c-2.084,1.95-4.653,2.926-7.709,2.926c-2.083,0.038-3.862-0.336-5.338-1.123
		c-1.477-0.788-2.683-1.9-3.62-3.339c-0.938-1.438-1.633-3.132-2.083-5.082c-0.452-1.949-0.678-4.047-0.678-6.293
		c0-2.521,0.33-4.766,0.99-6.736c0.659-1.969,1.527-3.634,2.604-4.993c1.076-1.358,2.326-2.393,3.75-3.102
		c1.424-0.71,2.882-1.064,4.375-1.064c2.084,0,3.881,0.454,5.391,1.359c1.511,0.907,2.743,2.108,3.698,3.604
		c0.955,1.498,1.648,3.211,2.083,5.141c0.435,1.931,0.616,3.94,0.547,6.027h-22.396C227.374,37.739,227.591,39.641,227.991,41.393z
		 M248.016,29.221c-0.451-1.675-1.119-3.142-2.005-4.402s-1.988-2.255-3.308-2.984c-1.319-0.729-2.847-1.093-4.583-1.093
		c-1.458,0-2.821,0.315-4.089,0.945s-2.378,1.546-3.333,2.747c-0.955,1.202-1.728,2.65-2.317,4.344
		c-0.591,1.694-0.938,3.604-1.042,5.731h21.354C248.694,32.657,248.467,30.896,248.016,29.221z"/>
	<path fill="#232323" d="M7.5,67.091v4.491h0.104c2.014-3.467,4.913-5.2,8.698-5.2c1.667,0,3.177,0.395,4.531,1.182
		c1.354,0.788,2.309,2.127,2.865,4.019c0.902-1.655,2.091-2.935,3.567-3.841c1.476-0.906,3.099-1.359,4.87-1.359
		c1.354,0,2.578,0.168,3.672,0.502c1.094,0.335,2.031,0.857,2.812,1.566s1.388,1.625,1.823,2.747
		c0.434,1.123,0.651,2.473,0.651,4.048v22.396h-4.427V77.609c0-0.946-0.07-1.832-0.208-2.659c-0.139-0.827-0.399-1.546-0.781-2.157
		c-0.382-0.61-0.912-1.093-1.588-1.447c-0.677-0.354-1.555-0.532-2.63-0.532c-2.188,0-3.906,0.709-5.156,2.127
		c-1.25,1.419-1.875,3.31-1.875,5.673v19.027H20V77.609c0-0.984-0.078-1.892-0.234-2.719s-0.425-1.546-0.807-2.156
		c-0.382-0.61-0.895-1.083-1.537-1.419c-0.643-0.334-1.467-0.502-2.474-0.502c-1.285,0-2.388,0.296-3.308,0.887
		c-0.92,0.591-1.667,1.3-2.24,2.127c-0.573,0.827-0.989,1.684-1.25,2.57c-0.26,0.887-0.391,1.625-0.391,2.216v19.027H3.333v-30.55
		H7.5z"/>
	<path fill="#232323" d="M65.365,97.641v-4.846h-0.104c-0.938,1.892-2.136,3.28-3.594,4.166c-1.458,0.887-3.177,1.33-5.157,1.33
		c-1.771,0-3.247-0.267-4.427-0.798c-1.181-0.532-2.136-1.29-2.865-2.275c-0.729-0.984-1.242-2.156-1.537-3.516
		c-0.295-1.359-0.442-2.866-0.442-4.521V67.091h4.427v20.682c0,1.891,0.486,3.389,1.458,4.491c0.972,1.104,2.309,1.654,4.01,1.654
		c1.354,0,2.526-0.236,3.516-0.709c0.989-0.473,1.814-1.143,2.474-2.009c0.659-0.866,1.154-1.881,1.484-3.044
		c0.33-1.161,0.495-2.432,0.495-3.811V67.091h4.427v30.55H65.365z"/>
	<path fill="#232323" d="M80.365,55.45v42.19h-4.427V55.45H80.365z"/>
	<path fill="#232323" d="M98.229,67.091v4.432h-5.365V90.49c0,0.592,0.043,1.064,0.13,1.419c0.086,0.354,0.251,0.63,0.495,0.827
		c0.243,0.197,0.581,0.325,1.016,0.384c0.434,0.06,0.998,0.089,1.693,0.089h2.031v4.432h-3.385c-1.146,0-2.127-0.089-2.943-0.266
		c-0.816-0.178-1.476-0.503-1.979-0.976c-0.504-0.473-0.877-1.142-1.12-2.009c-0.243-0.866-0.364-2.009-0.364-3.427V71.522h-4.583
		v-4.432h4.583v-9.159h4.427v9.159H98.229z"/>
	<path fill="#232323" d="M102.864,61.596V55.45h4.427v6.146H102.864z M107.291,67.091v30.55h-4.427v-30.55H107.291z"/>
	<path fill="#232323" d="M117.811,67.091v4.491h0.104c2.014-3.467,4.913-5.2,8.698-5.2c1.667,0,3.177,0.395,4.531,1.182
		c1.354,0.788,2.309,2.127,2.865,4.019c0.902-1.655,2.091-2.935,3.567-3.841c1.476-0.906,3.099-1.359,4.87-1.359
		c1.354,0,2.578,0.168,3.672,0.502c1.094,0.335,2.031,0.857,2.812,1.566s1.388,1.625,1.823,2.747
		c0.434,1.123,0.651,2.473,0.651,4.048v22.396h-4.427V77.609c0-0.946-0.07-1.832-0.208-2.659c-0.139-0.827-0.399-1.546-0.781-2.157
		c-0.382-0.61-0.912-1.093-1.588-1.447c-0.677-0.354-1.555-0.532-2.63-0.532c-2.188,0-3.906,0.709-5.156,2.127
		c-1.25,1.419-1.875,3.31-1.875,5.673v19.027h-4.427V77.609c0-0.984-0.078-1.892-0.234-2.719s-0.425-1.546-0.807-2.156
		c-0.382-0.61-0.895-1.083-1.537-1.419c-0.643-0.334-1.467-0.502-2.474-0.502c-1.285,0-2.388,0.296-3.308,0.887
		c-0.92,0.591-1.667,1.3-2.24,2.127c-0.573,0.827-0.989,1.684-1.25,2.57c-0.26,0.887-0.391,1.625-0.391,2.216v19.027h-4.427v-30.55
		H117.811z"/>
	<path fill="#232323" d="M176.613,95.69c-2.014,1.734-4.549,2.601-7.604,2.601c-2.154,0-4.02-0.395-5.599-1.183
		c-1.581-0.787-2.909-1.891-3.984-3.309c-1.077-1.418-1.884-3.111-2.422-5.082c-0.539-1.969-0.842-4.116-0.912-6.44
		c0-2.324,0.312-4.451,0.938-6.382c0.625-1.93,1.501-3.604,2.63-5.022c1.128-1.419,2.465-2.521,4.01-3.31
		c1.544-0.787,3.237-1.182,5.078-1.182c2.396,0,4.383,0.562,5.964,1.684c1.58,1.123,2.847,2.552,3.802,4.284
		c0.955,1.734,1.615,3.625,1.979,5.673c0.364,2.049,0.512,3.999,0.442,5.85H160.78c-0.035,1.34,0.104,2.61,0.417,3.812
		c0.312,1.202,0.815,2.266,1.511,3.191c0.694,0.926,1.58,1.664,2.656,2.216c1.076,0.552,2.344,0.827,3.802,0.827
		c1.875,0,3.411-0.492,4.609-1.478c1.198-0.984,1.987-2.481,2.37-4.49h4.375C179.929,91.377,178.626,93.958,176.613,95.69z
		 M175.545,76.072c-0.399-1.063-0.938-1.979-1.614-2.747c-0.677-0.769-1.477-1.379-2.396-1.832c-0.92-0.452-1.936-0.68-3.047-0.68
		c-1.146,0-2.18,0.228-3.099,0.68c-0.92,0.453-1.71,1.073-2.37,1.861c-0.66,0.788-1.181,1.704-1.562,2.748
		c-0.383,1.044-0.608,2.156-0.677,3.338h15.469C176.179,78.259,175.944,77.136,175.545,76.072z"/>
	<path fill="#232323" d="M204.633,97.641v-4.137h-0.104c-0.729,1.694-1.875,2.916-3.438,3.664s-3.281,1.123-5.156,1.123
		c-2.083,0-3.898-0.435-5.443-1.301c-1.545-0.865-2.831-2.028-3.854-3.486c-1.025-1.457-1.797-3.15-2.318-5.081
		c-0.521-1.93-0.781-3.979-0.781-6.146c0-2.166,0.251-4.215,0.755-6.146c0.503-1.93,1.267-3.614,2.292-5.053
		c1.024-1.438,2.309-2.579,3.854-3.427c1.545-0.847,3.342-1.271,5.391-1.271c0.694,0,1.44,0.079,2.239,0.236
		c0.798,0.158,1.597,0.424,2.396,0.798c0.798,0.375,1.554,0.867,2.266,1.477c0.711,0.611,1.31,1.37,1.797,2.275h0.104V55.45h4.427
		v42.19H204.633z M188.722,86.798c0.33,1.358,0.833,2.57,1.511,3.634c0.677,1.063,1.544,1.911,2.604,2.541
		c1.059,0.631,2.3,0.945,3.724,0.945c1.493,0,2.76-0.334,3.802-1.005c1.042-0.669,1.892-1.545,2.552-2.629
		c0.659-1.083,1.137-2.314,1.433-3.693c0.294-1.379,0.442-2.777,0.442-4.195c0-1.497-0.156-2.944-0.469-4.344
		c-0.312-1.397-0.807-2.629-1.484-3.692c-0.677-1.064-1.554-1.921-2.63-2.571c-1.077-0.649-2.379-0.975-3.906-0.975
		c-1.494,0-2.761,0.335-3.802,1.005c-1.042,0.67-1.875,1.557-2.5,2.659s-1.077,2.363-1.354,3.781
		c-0.278,1.418-0.417,2.876-0.417,4.373C188.227,84.05,188.392,85.438,188.722,86.798z"/>
	<path fill="#232323" d="M215.623,61.596V55.45h4.427v6.146H215.623z M220.049,67.091v30.55h-4.427v-30.55H220.049z"/>
	<path fill="#232323" d="M247.081,98.291c-1.146,0-2.058-0.365-2.734-1.094c-0.678-0.729-1.016-1.92-1.016-3.575
		c-1.216,1.655-2.631,2.847-4.245,3.575s-3.359,1.094-5.234,1.094c-1.216,0-2.361-0.148-3.438-0.443
		c-1.076-0.296-2.023-0.788-2.839-1.478c-0.815-0.688-1.458-1.575-1.927-2.659c-0.469-1.083-0.703-2.393-0.703-3.93
		c0-1.732,0.261-3.15,0.781-4.254c0.521-1.103,1.206-1.999,2.058-2.688c0.851-0.689,1.822-1.212,2.916-1.566s2.214-0.65,3.359-0.887
		c1.216-0.274,2.37-0.481,3.464-0.62c1.094-0.138,2.058-0.334,2.891-0.591c0.833-0.256,1.492-0.63,1.979-1.123
		c0.485-0.492,0.729-1.211,0.729-2.156c0-1.103-0.182-1.989-0.547-2.659c-0.364-0.67-0.833-1.182-1.406-1.536
		c-0.572-0.354-1.216-0.591-1.927-0.709c-0.712-0.118-1.415-0.178-2.109-0.178c-1.875,0-3.438,0.404-4.688,1.211
		c-1.25,0.809-1.927,2.335-2.031,4.58h-4.427c0.069-1.891,0.416-3.486,1.041-4.786c0.625-1.301,1.459-2.354,2.5-3.162
		c1.042-0.807,2.24-1.389,3.594-1.743c1.354-0.354,2.778-0.531,4.271-0.531c1.215,0,2.422,0.099,3.619,0.295
		c1.198,0.198,2.283,0.602,3.256,1.212c0.972,0.611,1.753,1.468,2.344,2.57c0.59,1.104,0.885,2.541,0.885,4.313V90.49
		c0,1.183,0.061,2.049,0.183,2.601c0.121,0.552,0.529,0.827,1.224,0.827c0.382,0,0.834-0.098,1.354-0.296v3.9
		C249.494,98.034,248.434,98.291,247.081,98.291z M240.882,82.897c-0.903,0.217-1.849,0.395-2.839,0.532
		c-0.989,0.138-1.987,0.295-2.994,0.473c-1.008,0.177-1.91,0.463-2.709,0.856c-0.799,0.395-1.45,0.956-1.953,1.685
		s-0.755,1.724-0.755,2.983c0,0.827,0.147,1.527,0.442,2.098c0.295,0.572,0.678,1.034,1.146,1.389s1.023,0.611,1.666,0.769
		c0.643,0.158,1.294,0.236,1.953,0.236c1.459,0,2.709-0.227,3.75-0.68c1.042-0.452,1.893-1.023,2.553-1.714
		c0.659-0.688,1.146-1.438,1.458-2.245c0.312-0.807,0.469-1.565,0.469-2.275v-5.141C242.514,82.336,241.785,82.682,240.882,82.897z"
		/>
	<path fill="#232323" d="M49.945,102.45v42.19h-1.042v-8.509h-0.104c-0.695,2.718-1.971,4.925-3.828,6.618
		c-1.858,1.694-4.158,2.541-6.901,2.541c-1.771,0-3.359-0.395-4.766-1.183c-1.406-0.787-2.604-1.88-3.594-3.279
		c-0.99-1.397-1.745-3.062-2.266-4.993c-0.521-1.93-0.781-4.037-0.781-6.322c0-2.128,0.251-4.156,0.755-6.087
		c0.503-1.93,1.232-3.624,2.188-5.081c0.955-1.457,2.144-2.62,3.568-3.486c1.423-0.866,3.055-1.301,4.896-1.301
		c2.847,0,5.19,0.848,7.031,2.541c1.84,1.694,3.073,3.921,3.698,6.678h0.104V102.45H49.945z M45.935,118.552
		c-1.979-2.541-4.602-3.811-7.865-3.811c-1.806,0-3.369,0.442-4.688,1.329c-1.32,0.887-2.396,2.029-3.229,3.428
		c-0.833,1.398-1.45,2.975-1.849,4.727c-0.4,1.754-0.599,3.516-0.599,5.289c0,1.931,0.216,3.781,0.651,5.555
		c0.434,1.772,1.076,3.338,1.927,4.697c0.851,1.359,1.927,2.433,3.229,3.221c1.302,0.788,2.821,1.182,4.558,1.182
		c1.736,0,3.272-0.394,4.609-1.182c1.336-0.788,2.465-1.852,3.385-3.191c0.92-1.339,1.623-2.896,2.109-4.668
		c0.486-1.772,0.729-3.644,0.729-5.613C48.904,124.747,47.914,121.093,45.935,118.552z"/>
	<path fill="#232323" d="M55.647,135.393c0.399,1.754,1.016,3.28,1.849,4.58s1.909,2.324,3.229,3.072
		c1.319,0.749,2.934,1.123,4.844,1.123c2.813,0,5.147-0.837,7.005-2.512c1.857-1.674,3.012-4.185,3.464-7.534h1.042
		c-0.382,3.546-1.615,6.294-3.698,8.243c-2.083,1.95-4.653,2.926-7.708,2.926c-2.083,0.038-3.863-0.336-5.339-1.123
		c-1.476-0.788-2.682-1.9-3.62-3.339c-0.938-1.438-1.632-3.132-2.083-5.082c-0.452-1.949-0.677-4.047-0.677-6.293
		c0-2.521,0.33-4.766,0.989-6.736c0.659-1.969,1.528-3.634,2.604-4.993c1.076-1.358,2.326-2.393,3.75-3.102
		c1.423-0.71,2.881-1.064,4.375-1.064c2.083,0,3.88,0.454,5.391,1.359c1.51,0.907,2.743,2.108,3.698,3.604
		c0.955,1.498,1.649,3.211,2.083,5.141c0.434,1.931,0.616,3.94,0.547,6.027H54.997C55.031,131.739,55.248,133.641,55.647,135.393z
		 M75.674,123.221c-0.452-1.675-1.12-3.142-2.005-4.402c-0.885-1.261-1.988-2.255-3.307-2.984c-1.32-0.729-2.848-1.093-4.583-1.093
		c-1.458,0-2.821,0.315-4.088,0.945c-1.268,0.63-2.379,1.546-3.333,2.747c-0.956,1.202-1.728,2.65-2.318,4.344
		c-0.591,1.694-0.938,3.604-1.042,5.731h21.354C76.351,126.657,76.125,124.896,75.674,123.221z"/>
	<path fill="#232323" d="M97.861,119.35c-0.417-1.063-1.007-1.939-1.771-2.629c-0.764-0.689-1.676-1.191-2.734-1.507
		c-1.06-0.315-2.232-0.473-3.516-0.473c-1.875,0-3.351,0.286-4.427,0.856c-1.077,0.571-1.875,1.222-2.396,1.95
		c-0.521,0.729-0.851,1.447-0.99,2.156c-0.139,0.709-0.208,1.202-0.208,1.478c0,1.498,0.269,2.649,0.807,3.457
		c0.538,0.808,1.258,1.428,2.162,1.861c0.938,0.434,1.953,0.808,3.047,1.122c1.094,0.316,2.37,0.69,3.828,1.123
		c1.042,0.315,2.074,0.641,3.099,0.976c1.023,0.335,1.944,0.797,2.76,1.388c0.815,0.592,1.476,1.34,1.979,2.246
		c0.503,0.906,0.755,2.088,0.755,3.545c0,1.537-0.287,2.837-0.859,3.9s-1.32,1.931-2.24,2.6c-0.92,0.671-1.962,1.152-3.125,1.448
		c-1.164,0.295-2.317,0.443-3.463,0.443c-3.577,0-6.276-0.887-8.099-2.659c-1.823-1.773-2.734-4.569-2.734-8.392h1.042
		c0,3.428,0.842,5.939,2.526,7.534c1.684,1.596,4.105,2.394,7.266,2.394c0.972,0,1.97-0.128,2.995-0.384
		c1.024-0.256,1.953-0.67,2.787-1.241c0.833-0.57,1.519-1.31,2.057-2.216c0.538-0.906,0.808-2.009,0.808-3.31
		c0-1.339-0.27-2.422-0.808-3.25c-0.539-0.827-1.233-1.507-2.083-2.038c-0.852-0.532-1.832-0.955-2.943-1.271
		c-1.112-0.315-2.24-0.63-3.386-0.945c-1.285-0.354-2.414-0.689-3.385-1.005c-0.973-0.314-1.841-0.669-2.604-1.063
		c-1.112-0.551-1.927-1.319-2.448-2.305c-0.521-0.984-0.781-2.305-0.781-3.959c0-0.827,0.156-1.693,0.469-2.6
		s0.833-1.733,1.562-2.482c0.729-0.748,1.667-1.358,2.812-1.832c1.146-0.473,2.552-0.709,4.219-0.709
		c2.986,0,5.347,0.769,7.083,2.305c1.736,1.536,2.604,3.999,2.604,7.387h-1.042C98.486,121.714,98.278,120.413,97.861,119.35z"/>
	<path fill="#232323" d="M104.632,108.418v-5.968h1.042v5.968H104.632z M104.632,144.641v-30.373h1.042v30.373H104.632z"/>
	<path fill="#232323" d="M131.142,134.477c-0.278,1.34-0.773,2.541-1.484,3.605c-0.712,1.063-1.545,1.96-2.5,2.688
		c-0.955,0.729-1.997,1.28-3.125,1.654c-1.128,0.375-2.266,0.562-3.412,0.562c-1.875,0-3.507-0.394-4.896-1.182
		c-1.389-0.788-2.544-1.842-3.464-3.162c-0.92-1.319-1.614-2.865-2.083-4.639c-0.469-1.772-0.703-3.623-0.703-5.554
		c0-2.048,0.242-3.969,0.729-5.762c0.486-1.792,1.215-3.368,2.188-4.728c0.972-1.358,2.179-2.432,3.62-3.22
		c1.44-0.788,3.099-1.183,4.974-1.183c1.284,0,2.482,0.228,3.594,0.68c1.111,0.453,2.109,1.074,2.995,1.861
		c0.885,0.789,1.631,1.714,2.239,2.777c0.607,1.063,1.05,2.227,1.328,3.486h0.104v-8.096h1.042v29.368
		c0,4.176-0.973,7.239-2.917,9.188c-1.945,1.95-4.688,2.926-8.229,2.926c-1.354,0-2.639-0.178-3.854-0.532
		c-1.216-0.354-2.292-0.916-3.229-1.684c-0.938-0.769-1.685-1.754-2.239-2.955c-0.556-1.202-0.852-2.669-0.886-4.402h1.042
		c0.034,1.497,0.303,2.777,0.807,3.841c0.503,1.063,1.172,1.93,2.005,2.601c0.833,0.669,1.797,1.161,2.891,1.477
		s2.23,0.473,3.411,0.473c3.264,0,5.772-0.877,7.526-2.629c1.753-1.754,2.63-4.521,2.63-8.303v-9.159H131.142z M130.543,123.368
		c-0.435-1.654-1.077-3.122-1.927-4.402c-0.851-1.279-1.919-2.305-3.203-3.073c-1.285-0.768-2.76-1.151-4.427-1.151
		c-1.737,0-3.255,0.364-4.557,1.093c-1.302,0.729-2.396,1.724-3.281,2.984c-0.886,1.261-1.545,2.718-1.979,4.372
		c-0.435,1.655-0.651,3.408-0.651,5.26c0,1.891,0.216,3.644,0.651,5.259c0.434,1.615,1.076,3.023,1.927,4.225
		c0.851,1.202,1.901,2.147,3.151,2.837s2.69,1.034,4.323,1.034c1.736,0,3.263-0.354,4.583-1.064
		c1.319-0.709,2.422-1.663,3.307-2.865c0.885-1.201,1.562-2.619,2.031-4.255c0.469-1.634,0.703-3.357,0.703-5.17
		C131.194,126.717,130.977,125.022,130.543,123.368z"/>
	<path fill="#232323" d="M138.434,114.268v7.505h0.104c0.243-1.182,0.633-2.265,1.172-3.25c0.538-0.984,1.215-1.852,2.031-2.6
		c0.815-0.748,1.762-1.33,2.839-1.743c1.076-0.414,2.273-0.621,3.594-0.621c1.388,0,2.665,0.236,3.828,0.709
		c1.163,0.474,2.169,1.173,3.021,2.099c0.85,0.926,1.51,2.067,1.979,3.427s0.703,2.925,0.703,4.698v20.149h-1.042v-19.973
		c0-1.772-0.227-3.279-0.677-4.521c-0.452-1.241-1.068-2.265-1.849-3.072s-1.685-1.398-2.708-1.773
		c-1.025-0.374-2.109-0.561-3.255-0.561c-1.598,0-3.004,0.345-4.219,1.033c-1.216,0.69-2.231,1.616-3.047,2.777
		c-0.816,1.163-1.433,2.512-1.849,4.048s-0.625,3.152-0.625,4.846v17.195h-1.042v-30.373H138.434z"/>
	<path fill="#232323" d="M176.716,101.445h1.042l-17.031,44.141h-0.99L176.716,101.445z"/>
	<path fill="#232323" d="M201.611,102.45v42.19h-1.042v-8.509h-0.104c-0.695,2.718-1.971,4.925-3.828,6.618
		c-1.858,1.694-4.158,2.541-6.901,2.541c-1.771,0-3.359-0.395-4.766-1.183c-1.406-0.787-2.604-1.88-3.594-3.279
		c-0.99-1.397-1.745-3.062-2.266-4.993c-0.521-1.93-0.781-4.037-0.781-6.322c0-2.128,0.251-4.156,0.755-6.087
		c0.503-1.93,1.232-3.624,2.188-5.081c0.955-1.457,2.144-2.62,3.568-3.486c1.423-0.866,3.055-1.301,4.896-1.301
		c2.847,0,5.19,0.848,7.031,2.541c1.84,1.694,3.073,3.921,3.698,6.678h0.104V102.45H201.611z M197.601,118.552
		c-1.979-2.541-4.602-3.811-7.865-3.811c-1.806,0-3.369,0.442-4.688,1.329c-1.32,0.887-2.396,2.029-3.229,3.428
		c-0.833,1.398-1.45,2.975-1.849,4.727c-0.4,1.754-0.599,3.516-0.599,5.289c0,1.931,0.216,3.781,0.651,5.555
		c0.434,1.772,1.076,3.338,1.927,4.697c0.851,1.359,1.927,2.433,3.229,3.221c1.302,0.788,2.821,1.182,4.558,1.182
		c1.736,0,3.272-0.394,4.609-1.182c1.336-0.788,2.465-1.852,3.385-3.191c0.92-1.339,1.623-2.896,2.109-4.668
		c0.486-1.772,0.729-3.644,0.729-5.613C200.569,124.747,199.58,121.093,197.601,118.552z"/>
	<path fill="#232323" d="M207.313,135.393c0.399,1.754,1.016,3.28,1.849,4.58c0.834,1.3,1.909,2.324,3.229,3.072
		c1.319,0.749,2.934,1.123,4.844,1.123c2.812,0,5.147-0.837,7.005-2.512c1.857-1.674,3.012-4.185,3.464-7.534h1.041
		c-0.382,3.546-1.614,6.294-3.697,8.243c-2.084,1.95-4.653,2.926-7.709,2.926c-2.083,0.038-3.862-0.336-5.338-1.123
		c-1.477-0.788-2.683-1.9-3.62-3.339c-0.938-1.438-1.632-3.132-2.083-5.082c-0.452-1.949-0.677-4.047-0.677-6.293
		c0-2.521,0.33-4.766,0.989-6.736c0.659-1.969,1.528-3.634,2.604-4.993c1.076-1.358,2.326-2.393,3.75-3.102
		c1.424-0.71,2.882-1.064,4.375-1.064c2.084,0,3.881,0.454,5.391,1.359c1.511,0.907,2.743,2.108,3.698,3.604
		c0.955,1.498,1.648,3.211,2.083,5.141c0.435,1.931,0.616,3.94,0.547,6.027h-22.396
		C206.697,131.739,206.914,133.641,207.313,135.393z M227.339,123.221c-0.451-1.675-1.119-3.142-2.005-4.402
		s-1.988-2.255-3.308-2.984c-1.319-0.729-2.847-1.093-4.583-1.093c-1.458,0-2.821,0.315-4.089,0.945s-2.378,1.546-3.333,2.747
		c-0.956,1.202-1.728,2.65-2.318,4.344c-0.591,1.694-0.938,3.604-1.042,5.731h21.354
		C228.017,126.657,227.791,124.896,227.339,123.221z"/>
	<path fill="#232323" d="M251.663,114.268l-10.104,30.373h-1.302l-10.99-30.373h1.198l10.364,29.191h0.104l9.583-29.191H251.663z"/>
</g>
<g>
	<path fill="#232323" d="M427.244,72.716L370.25,12.184c-2.604-2.763-6.231-4.332-10.028-4.332c-3.796,0-7.424,1.569-10.027,4.332
		l-28.538,30.311l-29.183-30.993c-3.867-4.111-9.858-5.443-15.107-3.36c-5.247,2.081-8.695,7.156-8.695,12.801v90.019
		c3.921-2.956,8.796-4.714,14.072-4.714c5.017,0,9.664,1.591,13.476,4.288V55.662l15.41,16.367c2.603,2.763,6.231,4.33,10.027,4.33
		c3.797,0,7.426-1.567,10.028-4.33l28.537-30.313l38.101,40.466l-35.043,37.41c-5.199,5.553-4.914,14.268,0.639,19.467
		c5.552,5.2,14.265,4.918,19.467-0.636l43.882-46.851C432.239,86.267,432.226,78.011,427.244,72.716z"/>
	<circle fill="#E93F3C" cx="282.424" cy="132.126" r="14.267"/>
</g>
<g>
</g>
<g>
</g>
<g>
</g>
<g>
</g>
<g>
</g>
<g>
</g>
<g>
</g>
<g>
</g>
<g>
</g>
<g>
</g>
<g>
</g>
<g>
</g>
<g>
</g>
<g>
</g>
<g>
</g>
</svg>
