<?xml version="1.0" encoding="utf-8"?>
<!-- Generator: Adobe Illustrator 16.0.0, SVG Export Plug-In . SVG Version: 6.00 Build 0)  -->
<!DOCTYPE svg PUBLIC "-//W3C//DTD SVG 1.1//EN" "http://www.w3.org/Graphics/SVG/1.1/DTD/svg11.dtd">
<svg version="1.1" id="Layer_1" xmlns="http://www.w3.org/2000/svg" xmlns:xlink="http://www.w3.org/1999/xlink" x="0px" y="0px"
	 width="580.751px" height="236.788px" viewBox="0 0 580.751 236.788" enable-background="new 0 0 580.751 236.788"
	 xml:space="preserve">
<g>
	<path fill-rule="evenodd" clip-rule="evenodd" fill="#1A1A1A" d="M152.987,108.698c-3.155,6.31-6.341,12.605-9.459,18.933
		c-16.911,34.313-33.816,68.63-50.688,102.963c-1.529,3.11-3.023,5.699-7.257,5.642c-4.24-0.058-5.622-2.766-7.138-5.842
		c-19.486-39.535-39.006-79.053-58.525-118.572c-0.581-1.175-1.242-2.311-2.842-3.427c0,1.67,0,3.34,0,5.011
		c0.001,38.318,0.005,76.636,0.001,114.954c-0.001,7.022-5.841,10.464-12.117,7.171c-1.442-0.757-2.312-1.879-2.373-3.539
		c-0.043-1.165-0.063-2.331-0.063-3.497c-0.003-47.813-0.007-95.628-0.001-143.442c0.001-7.25,0.499-7.216,7.592-7.841
		c6.828-0.602,10.166,1.876,13.194,8.129c19.573,40.416,39.671,80.577,59.604,120.818c0.796,1.607,1.663,3.181,2.911,5.559
		c2.844-5.599,5.427-10.549,7.893-15.557c18.514-37.603,36.999-75.219,55.509-112.823c2.742-5.571,11.863-8.422,17.29-5.436
		c2.692,1.482,2.411,4.119,2.411,6.608c0.006,18.992,0.004,37.984,0.004,56.978c0,28.988,0.008,57.977-0.005,86.965
		c-0.003,6.528-1.148,7.676-7.436,7.685c-6.312,0.009-7.558-1.198-7.56-7.579c-0.013-38.151-0.006-76.303-0.006-114.454
		c0-1.734,0-3.469,0-5.204C153.612,108.832,153.299,108.765,152.987,108.698z"/>
	<path fill-rule="evenodd" clip-rule="evenodd" fill="#1A1A1A" d="M421.706,179.292c11.719,16.438,22.902,32.156,34.134,47.839
		c1.493,2.085,3.121,4.117,1.762,6.785c-1.399,2.744-4.164,2.114-6.61,2.412c-5.01,0.611-8.202-1.313-11.12-5.543
		c-12.766-18.499-25.909-36.738-38.888-55.091c-1.592-2.25-4.116-4.359-2.695-7.551c1.514-3.4,4.811-2.195,7.509-2.416
		c6.296-0.518,12.612-0.469,18.915-1.193c18.274-2.101,26.114-16.804,28.024-29.441c1.243-8.229,0.184-16.272-3.487-23.869
		c-5.442-11.261-14.266-17.816-26.795-18.887c-13.622-1.165-27.292-0.703-40.945-0.84c-3.616-0.036-3.45,2.057-3.447,4.53
		c0.03,22.661,0.017,45.323,0.016,67.984c0,21.661,0.005,43.322-0.004,64.984c-0.001,2.467,0.59,5.487-2.268,6.597
		c-3.271,1.27-6.879,1.238-10.228-0.07c-1.748-0.684-2.059-2.451-2.05-4.22c0.02-3.499-0.015-6.998-0.015-10.497
		c-0.002-45.156-0.003-90.312,0.001-135.468c0.001-7.35,0.256-7.631,7.587-7.601c15.659,0.066,31.324-0.046,46.978,0.325
		c20.839,0.494,37.34,8.55,45.418,28.886c8.136,20.481,5.885,39.833-8.404,57.159C446.69,174.296,435.199,178.128,421.706,179.292z"
		/>
	<path fill-rule="evenodd" clip-rule="evenodd" fill="#999999" d="M266.382,235.792c-44.184-0.053-78.811-33.768-79.672-77.359
		c-0.082-4.138,0.934-6.02,5.202-5.438c0.654,0.089,1.331,0.012,1.997,0.012c6.834,0.002,6.834,0.002,7.083,6.711
		c1.247,33.602,28.838,61.194,62.348,62.351c36.109,1.245,64.754-22.721,68.613-57.407c4.104-36.906-17.486-66.996-53.155-73.877
		c-4.059-0.783-8.283-0.669-12.405-1.178c-6.565-0.811-3.533-6.012-4.041-9.456c-0.487-3.31,1.565-4.393,4.623-4.104
		c28.463,2.69,53.512,11.947,68.519,38.247c15.478,27.123,15.562,54.974,0.572,82.337
		C322.552,221.3,295.958,235.827,266.382,235.792z"/>
	<path fill-rule="evenodd" clip-rule="evenodd" fill="#1A1A1A" d="M485.521,155.672c0.246-10.837-0.48-23.66,1.233-36.436
		c3.145-23.434,21.046-40.207,44.86-41.072c14.304-0.519,28.64-0.208,42.961-0.141c4.817,0.023,5.698,1.579,5.801,7.743
		c0.073,4.401-1.175,6.833-6.195,6.837c-14.147,0.011-28.309-0.609-42.442,0.396c-17.128,1.219-30.021,12.875-31.419,29.911
		c-1.771,21.567-1.835,43.268-0.44,64.854c1.283,19.864,15.052,32.446,35.021,33.17c12.64,0.458,25.302,0.308,37.954,0.406
		c6.88,0.054,7.519,0.66,7.477,7.362c-0.037,6.066-0.614,6.661-7.653,6.561c-14.143-0.202-28.31,0.721-42.425-0.821
		c-27.656-3.022-44.327-21.37-44.712-49.323C485.415,175.962,485.521,166.8,485.521,155.672z"/>
	<path fill-rule="evenodd" clip-rule="evenodd" fill="#1A1A1A" d="M562.342,161.135c-4.315,0.001-8.632-0.063-12.946,0.017
		c-5.134,0.097-5.264-3.311-5.29-7.07c-0.027-3.84,0.313-7.038,5.391-6.977c8.63,0.105,17.262,0.07,25.893,0.014
		c5.044-0.033,5.351,3.262,5.362,7.066c0.011,3.864-0.457,7.068-5.462,6.968C570.975,161.065,566.658,161.134,562.342,161.135z"/>
</g>
<g>
	<rect y="6.495" fill-rule="evenodd" clip-rule="evenodd" fill="none" width="314.458" height="56.563"/>
	<path d="M20.447,57.415h-6.118V14.951H0.654V9.585h33.435v5.365H20.447V57.415z"/>
	<path d="M75.244,57.415h-6.085V35.103H47.371v22.312h-6.085V9.585h6.085v20.152h21.788V9.585h6.085V57.415z"/>
	<path d="M127.326,33.435c0,3.686-0.442,7.045-1.325,10.076c-0.884,3.032-2.198,5.627-3.942,7.786
		c-1.745,2.159-3.909,3.828-6.494,5.005c-2.584,1.178-5.567,1.767-8.947,1.767c-3.555,0-6.636-0.589-9.242-1.767
		c-2.606-1.178-4.766-2.846-6.478-5.005c-1.712-2.159-2.982-4.76-3.811-7.802c-0.829-3.043-1.243-6.417-1.243-10.125
		c0-3.708,0.414-7.071,1.243-10.092c0.829-3.021,2.104-5.6,3.828-7.737c1.723-2.137,3.893-3.789,6.51-4.956
		c2.617-1.167,5.703-1.75,9.258-1.75c3.38,0,6.352,0.584,8.915,1.75c2.562,1.167,4.716,2.825,6.461,4.973
		c1.745,2.148,3.059,4.733,3.942,7.753C126.884,26.331,127.326,29.705,127.326,33.435z M92.289,33.435
		c0,2.988,0.283,5.676,0.851,8.064c0.567,2.389,1.434,4.417,2.601,6.085c1.167,1.669,2.65,2.944,4.449,3.828
		c1.8,0.883,3.942,1.325,6.429,1.325s4.629-0.442,6.429-1.325c1.799-0.884,3.282-2.159,4.449-3.828
		c1.166-1.668,2.022-3.696,2.568-6.085c0.545-2.388,0.818-5.076,0.818-8.064c0-3.01-0.273-5.703-0.818-8.081
		c-0.545-2.377-1.396-4.389-2.552-6.036c-1.156-1.646-2.628-2.911-4.417-3.795c-1.789-0.883-3.926-1.325-6.412-1.325
		s-4.635,0.442-6.445,1.325c-1.811,0.884-3.304,2.149-4.482,3.795c-1.178,1.647-2.05,3.659-2.617,6.036
		C92.572,27.731,92.289,30.425,92.289,33.435z"/>
	<path d="M157.751,57.415L143.258,15.54h-0.262c0.131,1.614,0.24,3.217,0.327,4.809c0.087,1.374,0.158,2.819,0.213,4.334
		c0.054,1.517,0.082,2.896,0.082,4.139v28.593h-5.627V9.585h9.029l13.479,38.996h0.196l13.544-38.996h9.029v47.829h-6.085V28.396
		c0-1.134,0.021-2.432,0.065-3.893c0.043-1.461,0.098-2.857,0.164-4.188c0.087-1.548,0.164-3.119,0.229-4.711h-0.262l-14.624,41.81
		H157.751z"/>
	<path d="M224.293,57.415l-5.234-14.82h-17.83l-5.3,14.82h-6.15l17.568-48.025h5.562l17.601,48.025H224.293z M217.128,37.197
		l-4.842-13.871c-0.131-0.393-0.29-0.872-0.475-1.439c-0.186-0.567-0.376-1.178-0.572-1.832s-0.393-1.335-0.589-2.045
		c-0.196-0.708-0.382-1.401-0.556-2.077c-0.153,0.676-0.327,1.374-0.523,2.094s-0.393,1.413-0.589,2.077
		c-0.196,0.666-0.388,1.276-0.573,1.832c-0.186,0.557-0.343,1.02-0.474,1.391l-4.744,13.871H217.128z"/>
	<path d="M262.209,44.623c0,2.116-0.376,4.007-1.128,5.676c-0.753,1.668-1.827,3.081-3.223,4.236
		c-1.396,1.156-3.097,2.034-5.104,2.634c-2.007,0.599-4.264,0.899-6.772,0.899c-2.421,0-4.684-0.191-6.789-0.572
		c-2.105-0.381-3.866-0.943-5.283-1.685v-5.823c0.741,0.349,1.587,0.693,2.535,1.031c0.949,0.338,1.947,0.638,2.994,0.899
		s2.126,0.475,3.239,0.638c1.112,0.164,2.213,0.246,3.304,0.246c3.489,0,6.069-0.654,7.737-1.963
		c1.669-1.309,2.503-3.184,2.503-5.627c0-1.178-0.159-2.203-0.475-3.075c-0.316-0.872-0.873-1.673-1.668-2.405
		c-0.797-0.73-1.86-1.439-3.19-2.126c-1.331-0.688-3.01-1.434-5.038-2.241c-1.941-0.763-3.626-1.597-5.054-2.503
		c-1.429-0.904-2.607-1.924-3.533-3.059c-0.928-1.134-1.615-2.421-2.062-3.86c-0.447-1.439-0.67-3.075-0.67-4.907
		c0-1.919,0.349-3.631,1.047-5.136c0.698-1.505,1.679-2.775,2.944-3.811c1.265-1.036,2.775-1.827,4.531-2.372
		c1.755-0.545,3.691-0.818,5.807-0.818c2.595,0,4.929,0.246,7.001,0.736c2.072,0.491,3.915,1.118,5.529,1.881l-2.192,5.104
		c-1.418-0.632-3.026-1.183-4.826-1.652c-1.799-0.469-3.659-0.704-5.578-0.704c-2.661,0-4.722,0.617-6.183,1.848
		c-1.461,1.233-2.192,2.896-2.192,4.989c0,1.243,0.164,2.318,0.491,3.223c0.327,0.905,0.872,1.723,1.636,2.453
		c0.763,0.731,1.771,1.418,3.026,2.062c1.253,0.644,2.797,1.325,4.629,2.044c1.984,0.785,3.724,1.592,5.218,2.421
		c1.494,0.829,2.743,1.767,3.746,2.813c1.003,1.047,1.761,2.257,2.273,3.631C261.953,41.123,262.209,42.748,262.209,44.623z"/>
</g>
<g>
</g>
<g>
</g>
<g>
</g>
<g>
</g>
<g>
</g>
<g>
</g>
<g>
</g>
<g>
</g>
<g>
</g>
<g>
</g>
<g>
</g>
<g>
</g>
<g>
</g>
<g>
</g>
<g>
</g>
</svg>
